<svg width="14" height="16" viewBox="0 0 14 16" fill="none" xmlns="http://www.w3.org/2000/svg">
<path d="M11.2897 8.43509C11.2828 7.17055 11.8548 6.21611 13.0125 5.5132C12.3647 4.58633 11.3861 4.07638 10.094 3.97645C8.87084 3.87998 7.53394 4.6897 7.04466 4.6897C6.52782 4.6897 5.34252 4.01091 4.4122 4.01091C2.48954 4.04192 0.446289 5.54421 0.446289 8.60048C0.446289 9.50324 0.611679 10.4359 0.942459 11.3983C1.3835 12.6629 2.97538 15.7639 4.63617 15.7123C5.50447 15.6916 6.11779 15.0955 7.24795 15.0955C8.34366 15.0955 8.91219 15.7123 9.88041 15.7123C11.555 15.6881 12.9953 12.8696 13.4156 11.6016C11.1691 10.5438 11.2897 8.50056 11.2897 8.43509ZM9.33945 2.77738C10.2801 1.66099 10.194 0.644533 10.1664 0.279297C9.336 0.327536 8.37467 0.844379 7.82682 1.48182C7.22383 2.16405 6.86893 3.00823 6.94474 3.95922C7.84405 4.02814 8.66411 3.56642 9.33945 2.77738Z" fill="black"/>
</svg>
