<svg width="12" height="20" viewBox="0 0 12 20" fill="none" xmlns="http://www.w3.org/2000/svg">
<path d="M1.1499 19.1C0.899902 18.85 0.774902 18.5542 0.774902 18.2125C0.774902 17.8708 0.899902 17.575 1.1499 17.325L8.4749 10L1.1249 2.65C0.891569 2.41667 0.774902 2.125 0.774902 1.775C0.774902 1.425 0.899902 1.125 1.1499 0.875C1.3999 0.625 1.69574 0.5 2.0374 0.5C2.37907 0.5 2.6749 0.625 2.9249 0.875L11.3249 9.3C11.4249 9.4 11.4957 9.50833 11.5374 9.625C11.5791 9.74167 11.5999 9.86667 11.5999 10C11.5999 10.1333 11.5791 10.2583 11.5374 10.375C11.4957 10.4917 11.4249 10.6 11.3249 10.7L2.8999 19.125C2.66657 19.3583 2.37907 19.475 2.0374 19.475C1.69574 19.475 1.3999 19.35 1.1499 19.1Z" fill="#1C1B1F"/>
</svg>
