<svg width="20" height="17" viewBox="0 0 20 17" fill="none" xmlns="http://www.w3.org/2000/svg">
<path d="M2.08398 2.00391H6.83398C7.67384 2.00391 8.47929 2.28486 9.07316 2.78495C9.66702 3.28505 10.0007 3.96333 10.0007 4.67057V14.0039C10.0007 13.4735 9.75043 12.9648 9.30503 12.5897C8.85963 12.2146 8.25554 12.0039 7.62565 12.0039H2.08398V2.00391Z" stroke="#8F8F8F" stroke-width="2" stroke-linecap="round" stroke-linejoin="round"/>
<path d="M17.9167 2.00391H13.1667C12.3268 2.00391 11.5214 2.28486 10.9275 2.78495C10.3336 3.28505 10 3.96333 10 4.67057V14.0039C10 13.4735 10.2502 12.9648 10.6956 12.5897C11.141 12.2146 11.7451 12.0039 12.375 12.0039H17.9167V2.00391Z" stroke="#8F8F8F" stroke-width="2" stroke-linecap="round" stroke-linejoin="round"/>
</svg>
