<svg width="123" height="100" viewBox="0 0 123 100" fill="none" xmlns="http://www.w3.org/2000/svg">
<path d="M111.111 0H11.1111C4.94444 0 0 4.94444 0 11.1111V77.7778C0 80.7246 1.17063 83.5508 3.25437 85.6345C5.33811 87.7183 8.16426 88.8889 11.1111 88.8889H38.8889V100H83.3333V88.8889H111.111C117.222 88.8889 122.167 83.8889 122.167 77.7778L122.222 11.1111C122.222 8.16426 121.052 5.33811 118.968 3.25437C116.884 1.17063 114.058 0 111.111 0ZM111.111 77.7778H11.1111V11.1111H111.111V77.7778ZM83.3333 44.4444L44.4444 66.6667V22.2222L83.3333 44.4444Z" fill="#272DBC"/>
</svg>
