<svg width="19" height="19" viewBox="0 0 19 19" fill="none" xmlns="http://www.w3.org/2000/svg">
<g clip-path="url(#clip0_679_6207)">
<path d="M11 2.33594H5C4.60218 2.33594 4.22064 2.49397 3.93934 2.77528C3.65804 3.05658 3.5 3.43811 3.5 3.83594V15.8359C3.5 16.2338 3.65804 16.6153 3.93934 16.8966C4.22064 17.1779 4.60218 17.3359 5 17.3359H14C14.3978 17.3359 14.7794 17.1779 15.0607 16.8966C15.342 16.6153 15.5 16.2338 15.5 15.8359V6.83594L11 2.33594Z" stroke="#8F8F8F" stroke-width="2" stroke-linecap="round" stroke-linejoin="round"/>
<path d="M11 2.33594V6.83594H15.5" stroke="#8F8F8F" stroke-width="2" stroke-linecap="round" stroke-linejoin="round"/>
<path d="M12.5 10.5859H6.5" stroke="#8F8F8F" stroke-width="2" stroke-linecap="round" stroke-linejoin="round"/>
<path d="M12.5 13.5859H6.5" stroke="#8F8F8F" stroke-width="2" stroke-linecap="round" stroke-linejoin="round"/>
<path d="M8 7.58594H7.25H6.5" stroke="#8F8F8F" stroke-width="2" stroke-linecap="round" stroke-linejoin="round"/>
</g>
<defs>
<clipPath id="clip0_679_6207">
<rect width="18" height="18" fill="white" transform="translate(0.5 0.835938)"/>
</clipPath>
</defs>
</svg>
