<svg width="145" height="57" viewBox="0 0 145 57" fill="none" xmlns="http://www.w3.org/2000/svg">
<path d="M77.1566 30.9715C78.3104 30.2098 79.0701 28.9017 79.0701 27.4168C79.0701 25.0606 77.1587 23.1532 74.8064 23.1532C72.4502 23.1532 70.5428 25.0606 70.5428 27.4168C70.5428 28.9017 71.3005 30.2098 72.4542 30.9736C70.0777 31.912 68.3979 34.2317 68.3979 36.9372C68.3979 37.2866 68.6822 37.5751 69.0357 37.5751C69.385 37.5751 69.6735 37.2886 69.6735 36.9372C69.6735 34.1036 71.9749 31.7981 74.8103 31.7981C77.6419 31.7981 79.9472 34.1036 79.9472 36.9372C79.9472 37.2866 80.2336 37.5751 80.585 37.5751C80.9385 37.5751 81.2228 37.2886 81.2228 36.9372C81.2168 34.2316 79.5328 31.9099 77.1564 30.9713L77.1566 30.9715ZM71.8166 27.4168C71.8166 25.7675 73.1572 24.4268 74.8066 24.4268C76.456 24.4268 77.7966 25.7675 77.7966 27.4168C77.7966 29.0662 76.456 30.4068 74.8066 30.4068C73.1572 30.4068 71.8166 29.0662 71.8166 27.4168ZM74.0876 21.9568C73.6488 22.0137 73.2243 22.1234 72.8261 22.2778C72.3224 21.3393 71.3291 20.6954 70.1896 20.6954C68.5402 20.6954 67.1996 22.0401 67.1996 23.6854C67.1996 25.0484 68.1157 26.2021 69.3649 26.5576C69.3487 26.6571 69.3365 26.7546 69.3263 26.8542C69.308 27.039 69.2979 27.2259 69.2979 27.4168C69.2979 27.5671 69.304 27.7134 69.3162 27.8596C69.3222 27.9551 69.3324 28.0485 69.3446 28.1399C66.9111 28.5442 65.0527 30.6587 65.0527 33.2059C65.0527 33.5552 64.7663 33.8437 64.4149 33.8437C64.0615 33.8437 63.7771 33.5573 63.7771 33.2059C63.7771 30.4982 65.461 28.1804 67.8398 27.2441C66.684 26.4823 65.9223 25.1742 65.9223 23.6833C65.9263 21.3311 67.8337 19.4219 70.19 19.4219C71.9287 19.4219 73.4258 20.4619 74.0881 21.9569L74.0876 21.9568Z" fill="#131426"/>
<rect x="0.5" y="0.5" width="144" height="56" stroke="#E2DFF6"/>
</svg>
