<svg width="26" height="27" viewBox="0 0 26 27" fill="none" xmlns="http://www.w3.org/2000/svg">
<path d="M12.9982 11.3608C14.4517 11.3608 15.6336 10.2647 15.6336 8.91674C15.6336 7.56877 14.4517 6.47266 12.9982 6.47266C11.5456 6.47266 10.3629 7.56877 10.3629 8.91674C10.3629 10.2647 11.5456 11.3608 12.9982 11.3608ZM12.9982 7.69472C13.725 7.69472 14.3159 8.24276 14.3159 8.91674C14.3159 9.59013 13.725 10.1388 12.9982 10.1388C12.2715 10.1388 11.6806 9.59013 11.6806 8.91674C11.6806 8.24276 12.2717 7.69472 12.9982 7.69472Z" fill="#131426"/>
<path d="M19.5887 12.5859C18.4054 12.5859 17.3171 13.0736 16.5746 13.8887C15.5975 13.0504 14.3393 12.5859 13.0005 12.5859C11.6472 12.5859 10.3869 13.0589 9.42642 13.8917C8.63034 13.0155 7.53939 12.5859 6.41207 12.5859C4.23207 12.5859 2.45911 14.2302 2.45911 16.252V18.6961C2.45911 19.0341 2.75426 19.3071 3.11787 19.3071H7.72947V19.918C7.72947 20.256 8.02462 20.529 8.38823 20.529H17.6118C17.9754 20.529 18.2706 20.2558 18.2706 19.918V19.3071H22.8822C23.2458 19.3071 23.5409 19.0339 23.5409 18.6961V16.252C23.5414 14.2265 21.7789 12.5859 19.5885 12.5859H19.5887ZM3.77667 18.0849V16.2519C3.77667 14.9039 4.95855 13.8078 6.41199 13.8078C7.25075 13.8078 8.06494 14.1731 8.57354 14.8551C8.03666 15.6322 7.72963 16.5408 7.72963 17.4738V18.0847L3.77667 18.0849ZM16.9531 19.3069H9.04707V17.4739C9.04707 15.5114 10.7521 13.8078 13 13.8078C15.2335 13.8078 16.953 15.4979 16.953 17.4739L16.9531 19.3069ZM22.2239 18.0849H18.2709V17.4739C18.2709 16.5336 17.9593 15.6183 17.4262 14.852C17.917 14.2006 18.7162 13.8078 19.5884 13.8078C21.0536 13.8078 22.2237 14.9028 22.2237 16.2519L22.2239 18.0849Z" fill="#131426"/>
<path d="M19.5867 11.3608C21.0401 11.3608 22.222 10.2647 22.222 8.91674C22.222 7.56877 21.0401 6.47266 19.5867 6.47266C18.134 6.47266 16.9514 7.56877 16.9514 8.91674C16.9514 10.2647 18.134 11.3608 19.5867 11.3608ZM19.5867 7.69472C20.3134 7.69472 20.9043 8.24276 20.9043 8.91674C20.9043 9.59013 20.3134 10.1388 19.5867 10.1388C18.86 10.1388 18.269 9.59013 18.269 8.91674C18.269 8.24276 18.86 7.69472 19.5867 7.69472Z" fill="#131426"/>
<path d="M6.41029 11.3608C7.86373 11.3608 9.04561 10.2647 9.04561 8.91674C9.04561 7.56877 7.86373 6.47266 6.41029 6.47266C4.95684 6.47266 3.77496 7.56877 3.77496 8.91674C3.77496 10.2647 4.95744 11.3608 6.41029 11.3608ZM6.41029 7.69472C7.13701 7.69472 7.72793 8.24276 7.72793 8.91674C7.72793 9.59013 7.13701 10.1388 6.41029 10.1388C5.68357 10.1388 5.09264 9.59013 5.09264 8.91674C5.09264 8.24276 5.68357 7.69472 6.41029 7.69472Z" fill="#131426"/>
</svg>
