<svg width="17" height="17" viewBox="0 0 17 17" fill="none" xmlns="http://www.w3.org/2000/svg">
<g clip-path="url(#clip0_188_4954)">
<path d="M8.49809 15.5404C12.18 15.5404 15.1648 12.5556 15.1648 8.8737C15.1648 5.1918 12.18 2.20703 8.49809 2.20703C4.81619 2.20703 1.83142 5.1918 1.83142 8.8737C1.83142 12.5556 4.81619 15.5404 8.49809 15.5404Z" stroke="#272DBC" stroke-width="2" stroke-linecap="round" stroke-linejoin="round"/>
<path d="M1.83142 8.875H15.1648" stroke="#272DBC" stroke-width="2" stroke-linecap="round" stroke-linejoin="round"/>
<path d="M8.49809 2.20703C10.1656 4.0326 11.1133 6.40172 11.1648 8.8737C11.1133 11.3457 10.1656 13.7148 8.49809 15.5404C6.83057 13.7148 5.88292 11.3457 5.83142 8.8737C5.88292 6.40172 6.83057 4.0326 8.49809 2.20703V2.20703Z" stroke="#272DBC" stroke-width="2" stroke-linecap="round" stroke-linejoin="round"/>
</g>
<defs>
<clipPath id="clip0_188_4954">
<rect width="16" height="16" fill="white" transform="translate(0.498047 0.875)"/>
</clipPath>
</defs>
</svg>
