<svg width="108" height="108" viewBox="0 0 108 108" fill="none" xmlns="http://www.w3.org/2000/svg">
<g clip-path="url(#clip0_1949_18792)">
<mask id="mask0_1949_18792" style="mask-type:luminance" maskUnits="userSpaceOnUse" x="0" y="0" width="108" height="108">
<path d="M0 0H108V108H0V0Z" fill="white"/>
</mask>
<g mask="url(#mask0_1949_18792)">
<path d="M14.8306 92.7095L43.4686 64.0715M79.5316 51.3365L70.9591 77.054C70.8223 77.4662 70.5881 77.8394 70.2763 78.1418C69.9645 78.4442 69.5844 78.6669 69.1681 78.791L16.6171 94.4105C16.1437 94.5511 15.6408 94.5592 15.163 94.4338C14.6853 94.3084 14.2512 94.0544 13.9078 93.6994C13.5644 93.3445 13.325 92.9021 13.2156 92.4205C13.1061 91.9389 13.1309 91.4365 13.2871 90.968L30.3511 39.785C30.4734 39.4175 30.6734 39.0806 30.9374 38.7972C31.2013 38.5138 31.5232 38.2905 31.8811 38.1425L56.1226 28.1615C56.6155 27.958 57.1575 27.9049 57.6805 28.009C58.2034 28.1131 58.6838 28.3697 59.0611 28.7465L78.8791 48.569C79.2346 48.9239 79.4839 49.371 79.5992 49.8599C79.7145 50.3488 79.6911 50.8602 79.5316 51.3365Z" stroke="#272DBC" stroke-width="6" stroke-linecap="round" stroke-linejoin="round"/>
<path d="M80.0645 49.7522L92.7905 37.0217C94.4778 35.334 95.4256 33.0452 95.4256 30.6587C95.4256 28.2722 94.4778 25.9835 92.7905 24.2957L83.2505 14.7467C82.4147 13.9106 81.4224 13.2473 80.3302 12.7948C79.2381 12.3423 78.0675 12.1094 76.8853 12.1094C75.7031 12.1094 74.5324 12.3423 73.4403 12.7948C72.3481 13.2473 71.3558 13.9106 70.52 14.7467L57.794 27.4772M53.015 54.5222C52.388 53.8955 51.6437 53.3984 50.8246 53.0594C50.0055 52.7203 49.1277 52.5459 48.2412 52.5461C47.3547 52.5463 46.4769 52.7212 45.658 53.0606C44.839 53.4 44.095 53.8975 43.4683 54.5245C42.8416 55.1515 42.3445 55.8957 42.0054 56.7148C41.6664 57.5339 41.492 58.4118 41.4922 59.2983C41.4924 60.1848 41.6672 61.0626 42.0067 61.8815C42.3461 62.7004 42.8435 63.4445 43.4705 64.0712C44.7368 65.3369 46.454 66.0477 48.2444 66.0473C50.0347 66.0469 51.7516 65.3352 53.0173 64.069C54.2829 62.8027 54.9938 61.0855 54.9933 59.2951C54.9929 57.5048 54.2813 55.7879 53.015 54.5222Z" stroke="#272DBC" stroke-width="6" stroke-linecap="round" stroke-linejoin="round"/>
</g>
</g>
<defs>
<clipPath id="clip0_1949_18792">
<rect width="108" height="108" fill="white"/>
</clipPath>
</defs>
</svg>
