<svg width="129" height="123" viewBox="0 0 129 123" fill="none" xmlns="http://www.w3.org/2000/svg">
<path d="M95.8115 33.1172H33.1872C30.4971 33.1172 28.3164 35.3411 28.3164 38.0845V84.9191C28.3164 87.6625 30.4971 89.8864 33.1872 89.8864H95.8115C98.5015 89.8864 100.682 87.6625 100.682 84.9191V38.0845C100.682 35.3411 98.5015 33.1172 95.8115 33.1172Z" stroke="#373ED7" stroke-width="6" stroke-linejoin="round"/>
<path d="M95.7265 75.6953H91.4789C88.7421 75.6953 86.5234 77.9193 86.5234 80.6626V84.9203C86.5234 87.6637 88.7421 89.8876 91.4789 89.8876H95.7265C98.4633 89.8876 100.682 87.6637 100.682 84.9203V80.6626C100.682 77.9193 98.4633 75.6953 95.7265 75.6953Z" stroke="#373ED7" stroke-width="6" stroke-linejoin="round"/>
<path d="M95.7265 61.5H91.4789C88.7421 61.5 86.5234 63.7239 86.5234 66.4673V70.725C86.5234 73.4684 88.7421 75.6923 91.4789 75.6923H95.7265C98.4633 75.6923 100.682 73.4684 100.682 70.725V66.4673C100.682 63.7239 98.4633 61.5 95.7265 61.5Z" stroke="#373ED7" stroke-width="6" stroke-linejoin="round"/>
<path d="M95.7265 47.3086H91.4789C88.7421 47.3086 86.5234 49.5325 86.5234 52.2759V56.5336C86.5234 59.277 88.7421 61.5009 91.4789 61.5009H95.7265C98.4633 61.5009 100.682 59.277 100.682 56.5336V52.2759C100.682 49.5325 98.4633 47.3086 95.7265 47.3086Z" stroke="#373ED7" stroke-width="6" stroke-linejoin="round"/>
<path d="M95.7265 33.1172H91.4789C88.7421 33.1172 86.5234 35.3411 86.5234 38.0845V42.3422C86.5234 45.0856 88.7421 47.3095 91.4789 47.3095H95.7265C98.4633 47.3095 100.682 45.0856 100.682 42.3422V38.0845C100.682 35.3411 98.4633 33.1172 95.7265 33.1172Z" stroke="#373ED7" stroke-width="6" stroke-linejoin="round"/>
<path d="M37.5195 75.6953H33.2719C30.5351 75.6953 28.3164 77.9193 28.3164 80.6626V84.9203C28.3164 87.6637 30.5351 89.8876 33.2719 89.8876H37.5195C40.2563 89.8876 42.4749 87.6637 42.4749 84.9203V80.6626C42.4749 77.9193 40.2563 75.6953 37.5195 75.6953Z" stroke="#373ED7" stroke-width="6" stroke-linejoin="round"/>
<path d="M37.5195 61.5H33.2719C30.5351 61.5 28.3164 63.7239 28.3164 66.4673V70.725C28.3164 73.4684 30.5351 75.6923 33.2719 75.6923H37.5195C40.2563 75.6923 42.4749 73.4684 42.4749 70.725V66.4673C42.4749 63.7239 40.2563 61.5 37.5195 61.5Z" stroke="#373ED7" stroke-width="6" stroke-linejoin="round"/>
<path d="M37.5195 47.3086H33.2719C30.5351 47.3086 28.3164 49.5325 28.3164 52.2759V56.5336C28.3164 59.277 30.5351 61.5009 33.2719 61.5009H37.5195C40.2563 61.5009 42.4749 59.277 42.4749 56.5336V52.2759C42.4749 49.5325 40.2563 47.3086 37.5195 47.3086Z" stroke="#373ED7" stroke-width="6" stroke-linejoin="round"/>
<path d="M37.5195 33.1172H33.2719C30.5351 33.1172 28.3164 35.3411 28.3164 38.0845V42.3422C28.3164 45.0856 30.5351 47.3095 33.2719 47.3095H37.5195C40.2563 47.3095 42.4749 45.0856 42.4749 42.3422V38.0845C42.4749 35.3411 40.2563 33.1172 37.5195 33.1172Z" stroke="#373ED7" stroke-width="6" stroke-linejoin="round"/>
<path d="M81.7075 33.1172H47.2944C44.6336 33.1172 42.4766 35.3411 42.4766 38.0845V56.5345C42.4766 59.2779 44.6336 61.5018 47.2944 61.5018H81.7075C84.3683 61.5018 86.5253 59.2779 86.5253 56.5345V38.0845C86.5253 35.3411 84.3683 33.1172 81.7075 33.1172Z" stroke="#373ED7" stroke-width="6" stroke-linejoin="round"/>
<path d="M81.7075 61.5H47.2944C44.6336 61.5 42.4766 63.7239 42.4766 66.4673V84.9173C42.4766 87.6607 44.6336 89.8846 47.2944 89.8846H81.7075C84.3683 89.8846 86.5253 87.6607 86.5253 84.9173V66.4673C86.5253 63.7239 84.3683 61.5 81.7075 61.5Z" stroke="#373ED7" stroke-width="6" stroke-linejoin="round"/>
</svg>
