<svg width="91" height="91" viewBox="0 0 91 91" fill="none" xmlns="http://www.w3.org/2000/svg">
<path d="M18.9595 79.625C15.7366 79.625 13.4452 78.188 12.0852 75.3139C10.7253 72.4398 11.0577 69.7692 13.0825 67.3021L34.1262 41.7083V18.9583H30.3345C29.2602 18.9583 28.3591 18.5943 27.6311 17.8663C26.9031 17.1383 26.5403 16.2385 26.5429 15.1667C26.5429 14.0924 26.9069 13.1912 27.6349 12.4632C28.3629 11.7352 29.2628 11.3725 30.3345 11.375H60.6679C61.7422 11.375 62.6433 11.739 63.3713 12.467C64.0993 13.195 64.4621 14.0949 64.4595 15.1667C64.4595 16.241 64.0955 17.1421 63.3675 17.8701C62.6395 18.5981 61.7396 18.9609 60.6679 18.9583H56.8762V41.7083L77.9199 67.3021C79.9422 69.7667 80.2746 72.4373 78.9172 75.3139C77.5597 78.1905 75.2683 79.6275 72.0429 79.625H18.9595ZM18.9595 72.0417H72.0429L49.2929 44.3625V18.9583H41.7095V44.3625L18.9595 72.0417Z" fill="#272DBC"/>
</svg>
