<svg width="110" height="111" viewBox="0 0 110 111" fill="none" xmlns="http://www.w3.org/2000/svg">
<path d="M91.6667 78.625C96.7083 78.625 100.833 74.4625 100.833 69.375V18.5C100.833 13.4125 96.7083 9.25 91.6667 9.25H43.5417C44.9167 12.025 45.8333 15.2625 45.8333 18.5H91.6667V69.375H50.4167V78.625M68.75 32.375V41.625H41.25V101.75H32.0833V74H22.9167V101.75H13.75V64.75H6.875V41.625C6.875 36.5375 11 32.375 16.0417 32.375H68.75ZM36.6667 18.5C36.6667 23.5875 32.5417 27.75 27.5 27.75C22.4583 27.75 18.3333 23.5875 18.3333 18.5C18.3333 13.4125 22.4583 9.25 27.5 9.25C32.5417 9.25 36.6667 13.4125 36.6667 18.5ZM77.9167 27.75H87.0833V64.75H77.9167V27.75ZM64.1667 46.25H73.3333V64.75H64.1667V46.25ZM50.4167 46.25H59.5833V64.75H50.4167V46.25Z" fill="#272DBC"/>
</svg>
