<svg width="16" height="17" viewBox="0 0 16 17" fill="none" xmlns="http://www.w3.org/2000/svg">
<path d="M8.00004 9.54036C8.36823 9.54036 8.66671 9.24189 8.66671 8.8737C8.66671 8.50551 8.36823 8.20703 8.00004 8.20703C7.63185 8.20703 7.33337 8.50551 7.33337 8.8737C7.33337 9.24189 7.63185 9.54036 8.00004 9.54036Z" stroke="#131426" stroke-width="2" stroke-linecap="round" stroke-linejoin="round"/>
<path d="M8.00004 4.8763C8.36823 4.8763 8.66671 4.57783 8.66671 4.20964C8.66671 3.84145 8.36823 3.54297 8.00004 3.54297C7.63185 3.54297 7.33337 3.84145 7.33337 4.20964C7.33337 4.57783 7.63185 4.8763 8.00004 4.8763Z" stroke="#131426" stroke-width="2" stroke-linecap="round" stroke-linejoin="round"/>
<path d="M8.00004 14.2083C8.36823 14.2083 8.66671 13.9099 8.66671 13.5417C8.66671 13.1735 8.36823 12.875 8.00004 12.875C7.63185 12.875 7.33337 13.1735 7.33337 13.5417C7.33337 13.9099 7.63185 14.2083 8.00004 14.2083Z" stroke="#131426" stroke-width="2" stroke-linecap="round" stroke-linejoin="round"/>
</svg>
