<svg width="24" height="23" viewBox="0 0 24 23" fill="none" xmlns="http://www.w3.org/2000/svg">
<path d="M22.9763 0H6.60456C6.03973 0 5.5813 0.455618 5.5813 1.01717V5.54991L15.0696 8.32487L23.9996 5.54991V1.01717C23.9996 0.455149 23.5416 0 22.9763 0Z" fill="#41A5EE"/>
<path d="M23.9996 5.54883H5.5813V11.0987L15.0696 12.7637L23.9996 11.0987V5.54883Z" fill="#2B7CD3"/>
<path d="M5.5813 11.0996V16.6495L14.5113 17.7595L23.9996 16.6495V11.0996H5.5813Z" fill="#185ABD"/>
<path d="M6.60456 22.1983H22.9768C23.5416 22.1983 24.0001 21.7427 24.0001 21.1812V16.6484H5.5813V21.1812C5.5813 21.7432 6.03926 22.1983 6.60456 22.1983Z" fill="#103F91"/>
<path opacity="0.1" d="M12.372 4.43945H5.5813V18.3142H12.372C12.9363 18.3124 13.3934 17.8581 13.3952 17.2971V5.45662C13.3934 4.89554 12.9363 4.44133 12.372 4.43945Z" fill="black"/>
<path opacity="0.2" d="M11.8142 4.99414H5.5813V18.8689H11.8142C12.3785 18.867 12.8356 18.4128 12.8374 17.8517V6.01131C12.8351 5.45023 12.3781 4.99602 11.8142 4.99414Z" fill="black"/>
<path opacity="0.2" d="M11.8142 4.99414H5.5813V17.7589H11.8142C12.3785 17.7571 12.8356 17.3029 12.8374 16.7418V6.01131C12.8351 5.45023 12.3781 4.99602 11.8142 4.99414Z" fill="black"/>
<path opacity="0.2" d="M11.2559 4.99414H5.5813V17.7589H11.2559C11.8203 17.7571 12.2773 17.3029 12.2792 16.7418V6.01131C12.2768 5.45023 11.8203 4.99602 11.2559 4.99414Z" fill="black"/>
<path d="M1.02326 4.99414H11.2559C11.8207 4.99414 12.2792 5.44976 12.2792 6.01131V16.1868C12.2792 16.7488 11.8212 17.2039 11.2559 17.2039H1.02326C0.457961 17.2039 0 16.7483 0 16.1868V6.01131C0 5.44976 0.457961 4.99414 1.02326 4.99414Z" fill="url(#paint0_linear_3262_17849)"/>
<path d="M4.19817 12.7957C4.21832 12.9527 4.23145 13.0891 4.23801 13.2063H4.26145C4.27035 13.0952 4.2891 12.9616 4.31723 12.8051C4.34535 12.6485 4.37113 12.5163 4.39363 12.4081L5.46986 7.79141H6.86109L7.97717 12.3387C8.04185 12.6213 8.08826 12.9082 8.11592 13.1965H8.1342C8.15482 12.9166 8.19373 12.6387 8.25045 12.364L9.14059 7.78906H10.4071L8.8434 14.4044H7.36405L6.30376 10.0231C6.27329 9.897 6.23813 9.73247 6.19923 9.5295C6.16032 9.32654 6.13689 9.17888 6.12704 9.0856H6.10876C6.09657 9.19342 6.07267 9.35326 6.03657 9.56513C6.00095 9.777 5.97236 9.93403 5.95079 10.0357L4.95378 14.403H3.44912L1.87695 7.79188H3.166L4.13535 12.4179C4.15785 12.5126 4.17848 12.6391 4.19817 12.7957Z" fill="white"/>
<defs>
<linearGradient id="paint0_linear_3262_17849" x1="2.1477" y1="4.18548" x2="10.1312" y2="18.0126" gradientUnits="userSpaceOnUse">
<stop stop-color="#2368C4"/>
<stop offset="0.5" stop-color="#1A5DBE"/>
<stop offset="1" stop-color="#1146AC"/>
</linearGradient>
</defs>
</svg>
