<svg width="85" height="85" viewBox="0 0 85 85" fill="none" xmlns="http://www.w3.org/2000/svg">
<g clip-path="url(#clip0_1949_18800)">
<path d="M75.7031 11.1549C74.7898 10.5641 73.7454 10.2066 72.6616 10.114C71.5778 10.0213 70.4878 10.1964 69.4875 10.6236L36.7094 23.533C35.9333 23.8488 35.1035 24.0112 34.2656 24.0111H13.2812C11.52 24.0111 9.83098 24.7108 8.58562 25.9561C7.34026 27.2015 6.64062 28.8906 6.64062 30.6518V31.183H0V47.1205H6.64062V47.8111C6.68224 49.5446 7.4002 51.193 8.64108 52.4041C9.88196 53.6152 11.5473 54.2929 13.2812 54.2924L21.25 71.1861C21.7896 72.3238 22.6391 73.2862 23.701 73.9627C24.7629 74.6393 25.994 75.0027 27.2531 75.0111H30.6C32.352 74.9971 34.0274 74.2913 35.2613 73.0475C36.4952 71.8036 37.1876 70.1226 37.1875 68.3705V54.9299L69.4875 67.8393C70.282 68.1554 71.1293 68.3177 71.9844 68.3174C73.311 68.296 74.6028 67.89 75.7031 67.1487C76.5769 66.5587 77.2977 65.7691 77.8057 64.8453C78.3138 63.9215 78.5947 62.89 78.625 61.8362V16.6268C78.6201 15.5458 78.3514 14.4823 77.8422 13.5287C77.333 12.5751 76.5987 11.7603 75.7031 11.1549ZM30.5469 30.6518V47.8111H13.2812V30.6518H30.5469ZM30.5469 68.3705H27.2L20.6656 54.2924H30.5469V68.3705ZM39.1531 48.608C38.5224 48.2857 37.8647 48.019 37.1875 47.8111V30.2799C37.8582 30.1415 38.5158 29.946 39.1531 29.6955L71.9844 16.6268V61.6768L39.1531 48.608ZM78.7844 32.5111V45.7924C80.5456 45.7924 82.2346 45.0928 83.48 43.8474C84.7254 42.602 85.425 40.913 85.425 39.1518C85.425 37.3906 84.7254 35.7015 83.48 34.4561C82.2346 33.2108 80.5456 32.5111 78.7844 32.5111Z" fill="#272DBC"/>
</g>
<defs>
<clipPath id="clip0_1949_18800">
<rect width="85" height="85" fill="white"/>
</clipPath>
</defs>
</svg>
