<svg width="23" height="24" viewBox="0 0 23 24" fill="none" xmlns="http://www.w3.org/2000/svg">
<path d="M1.44405 1.03539L14.7237 0.0545252C16.355 -0.0853921 16.774 0.00892605 17.7997 0.754592L22.0388 3.74085C22.7379 4.25444 22.9707 4.39436 22.9707 4.95355V21.3316C22.9707 22.358 22.598 22.9652 21.2931 23.0578L5.87197 23.9919C4.89279 24.0382 4.42647 23.8983 3.9136 23.2448L0.791985 19.1855C0.232076 18.4384 0 17.8792 0 17.2255V2.66735C0 1.82809 0.372713 1.12826 1.44405 1.03539Z" fill="white"/>
<path fill-rule="evenodd" clip-rule="evenodd" d="M14.7237 0.0547652L1.44405 1.03563C0.372713 1.12826 0 1.82833 0 2.66735V17.2255C0 17.879 0.232076 18.4382 0.791985 19.1855L3.9136 23.2446C4.42647 23.8981 4.89279 24.0382 5.87197 23.9917L21.2933 23.0581C22.5972 22.9652 22.9709 22.358 22.9709 21.3318V4.95379C22.9709 4.4234 22.7614 4.27052 22.1446 3.81789L17.7997 0.754592C16.7742 0.00892605 16.355 -0.0853921 14.7237 0.0545252V0.0547652ZM6.22068 4.68572C4.96142 4.77043 4.67583 4.78963 3.96064 4.20813L2.14244 2.76191C1.95764 2.57472 2.05052 2.3412 2.51611 2.29464L15.2822 1.36178C16.3542 1.26818 16.9125 1.64185 17.3317 1.96825L19.5212 3.55462C19.6148 3.6019 19.8476 3.88101 19.5675 3.88101L6.38388 4.67468L6.22068 4.68572ZM4.75263 21.1919V7.28823C4.75263 6.68104 4.9391 6.40096 5.49733 6.35392L20.6396 5.46738C21.1532 5.42106 21.3853 5.74746 21.3853 6.35368V20.1647C21.3853 20.7719 21.2917 21.2855 20.4534 21.3318L5.96317 22.1718C5.12486 22.2181 4.75287 21.939 4.75287 21.1919H4.75263ZM19.0564 8.03365C19.1492 8.45364 19.0564 8.87364 18.6364 8.92163L17.938 9.06011V19.3254C17.3315 19.6518 16.7733 19.8383 16.3067 19.8383C15.5611 19.8383 15.3748 19.6048 14.8164 18.9054L10.2492 11.72V18.6719L11.694 18.999C11.694 18.999 11.694 19.839 10.5284 19.839L7.31482 20.0255C7.22122 19.8383 7.31482 19.372 7.64049 19.2791L8.47976 19.0463V9.8545L7.31506 9.76018C7.22146 9.34019 7.45426 8.73372 8.10704 8.68668L11.5551 8.4546L16.307 15.7329V9.29387L15.0957 9.15467C15.0021 8.64036 15.3748 8.26669 15.8404 8.22109L19.0564 8.03365Z" fill="black"/>
</svg>
