<svg width="85" height="85" viewBox="0 0 85 85" fill="none" xmlns="http://www.w3.org/2000/svg">
<path d="M59.9283 47.6498C60.2998 48.02 60.5945 48.4598 60.7956 48.9441C60.9967 49.4284 61.1002 49.9477 61.1002 50.4721C61.1002 50.9965 60.9967 51.5157 60.7956 52C60.5945 52.4843 60.2998 52.9242 59.9283 53.2943L51.9596 61.2631C51.2111 62.0116 50.1959 62.4321 49.1373 62.4321C48.0788 62.4321 47.0636 62.0116 46.315 61.2631C45.5665 60.5146 45.146 59.4994 45.146 58.4408C45.146 57.3823 45.5665 56.3671 46.315 55.6186L51.4648 50.4688L46.3117 45.3189C45.9411 44.9483 45.6471 44.5083 45.4465 44.0241C45.2459 43.5398 45.1427 43.0208 45.1427 42.4967C45.1427 41.9725 45.2459 41.4535 45.4465 40.9693C45.6471 40.485 45.9411 40.045 46.3117 39.6744C46.6823 39.3038 47.1223 39.0098 47.6066 38.8092C48.0908 38.6086 48.6098 38.5054 49.134 38.5054C49.6581 38.5054 50.1771 38.6086 50.6614 38.8092C51.1456 39.0098 51.5856 39.3038 51.9562 39.6744L59.9283 47.6498ZM38.6783 39.6811C38.3082 39.3096 37.8683 39.0149 37.384 38.8138C36.8997 38.6127 36.3805 38.5092 35.8561 38.5092C35.3317 38.5092 34.8124 38.6127 34.3281 38.8138C33.8438 39.0149 33.4039 39.3096 33.0338 39.6811L25.065 47.6498C24.6936 48.02 24.3989 48.4598 24.1978 48.9441C23.9967 49.4284 23.8931 49.9477 23.8931 50.4721C23.8931 50.9965 23.9967 51.5157 24.1978 52C24.3989 52.4843 24.6936 52.9242 25.065 53.2943L33.0338 61.2631C33.7823 62.0116 34.7975 62.4321 35.8561 62.4321C36.9146 62.4321 37.9298 62.0116 38.6783 61.2631C39.4268 60.5146 39.8473 59.4994 39.8473 58.4408C39.8473 57.3823 39.4268 56.3671 38.6783 55.6186L33.5352 50.4688L38.6883 45.3189C39.0581 44.9483 39.3512 44.5083 39.5508 44.0243C39.7505 43.5402 39.8528 43.0215 39.8519 42.4979C39.8509 41.9743 39.7468 41.456 39.5455 40.9727C39.3441 40.4893 39.0494 40.0504 38.6783 39.6811ZM73.0469 29.2188V71.7188C73.0469 73.4799 72.3472 75.169 71.1019 76.4144C69.8565 77.6597 68.1675 78.3594 66.4062 78.3594H18.5938C16.8325 78.3594 15.1435 77.6597 13.8981 76.4144C12.6528 75.169 11.9531 73.4799 11.9531 71.7188V13.2812C11.9531 11.52 12.6528 9.83098 13.8981 8.58562C15.1435 7.34026 16.8325 6.64063 18.5938 6.64062H50.4688C50.9924 6.64065 51.5109 6.74388 51.9945 6.94443C52.4782 7.14497 52.9177 7.43889 53.2877 7.80938L71.8814 26.4031C72.6277 27.1502 73.0468 28.1629 73.0469 29.2188ZM53.125 18.9258V26.5625H60.7617L53.125 18.9258ZM65.0781 70.3906V34.5312H49.1406C48.0839 34.5312 47.0705 34.1115 46.3232 33.3643C45.576 32.617 45.1562 31.6036 45.1562 30.5469V14.6094H19.9219V70.3906H65.0781Z" fill="#272DBC"/>
</svg>
