<svg width="17" height="17" viewBox="0 0 17 17" fill="none" xmlns="http://www.w3.org/2000/svg">
<g clip-path="url(#clip0_679_6220)">
<path d="M8.5 10.7227C9.60457 10.7227 10.5 9.82723 10.5 8.72266C10.5 7.61809 9.60457 6.72266 8.5 6.72266C7.39543 6.72266 6.5 7.61809 6.5 8.72266C6.5 9.82723 7.39543 10.7227 8.5 10.7227Z" stroke="#8F8F8F" stroke-width="2" stroke-linecap="round" stroke-linejoin="round"/>
<path d="M13.4327 10.724C13.3439 10.925 13.3175 11.1481 13.3567 11.3644C13.3959 11.5806 13.499 11.7802 13.6527 11.9373L13.6927 11.9773C13.8167 12.1011 13.915 12.2482 13.9821 12.41C14.0492 12.5719 14.0837 12.7454 14.0837 12.9206C14.0837 13.0958 14.0492 13.2693 13.9821 13.4312C13.915 13.5931 13.8167 13.7401 13.6927 13.864C13.5689 13.9879 13.4218 14.0863 13.2599 14.1534C13.0981 14.2205 12.9246 14.255 12.7493 14.255C12.5741 14.255 12.4006 14.2205 12.2388 14.1534C12.0769 14.0863 11.9298 13.9879 11.806 13.864L11.766 13.824C11.6089 13.6703 11.4093 13.5672 11.1931 13.528C10.9768 13.4887 10.7538 13.5152 10.5527 13.604C10.3555 13.6885 10.1873 13.8288 10.0689 14.0076C9.95044 14.1865 9.88687 14.3961 9.88602 14.6106V14.724C9.88602 15.0776 9.74554 15.4167 9.49549 15.6668C9.24544 15.9168 8.9063 16.0573 8.55268 16.0573C8.19906 16.0573 7.85992 15.9168 7.60987 15.6668C7.35983 15.4167 7.21935 15.0776 7.21935 14.724V14.664C7.21419 14.4433 7.14276 14.2293 7.01436 14.0498C6.88595 13.8702 6.70651 13.7335 6.49935 13.6573C6.29827 13.5685 6.07522 13.5421 5.85896 13.5813C5.64269 13.6205 5.44314 13.7236 5.28602 13.8773L5.24602 13.9173C5.12218 14.0413 4.97513 14.1396 4.81327 14.2067C4.65141 14.2738 4.4779 14.3083 4.30268 14.3083C4.12746 14.3083 3.95396 14.2738 3.7921 14.2067C3.63023 14.1396 3.48318 14.0413 3.35935 13.9173C3.23538 13.7935 3.13704 13.6464 3.06994 13.4845C3.00284 13.3227 2.9683 13.1492 2.9683 12.974C2.9683 12.7987 3.00284 12.6252 3.06994 12.4634C3.13704 12.3015 3.23538 12.1545 3.35935 12.0306L3.39935 11.9906C3.55304 11.8335 3.65614 11.6339 3.69535 11.4177C3.73456 11.2014 3.70809 10.9784 3.61935 10.7773C3.53484 10.5801 3.39452 10.4119 3.21566 10.2935C3.0368 10.175 2.82721 10.1115 2.61268 10.1106H2.49935C2.14573 10.1106 1.80659 9.97015 1.55654 9.7201C1.30649 9.47005 1.16602 9.13091 1.16602 8.77729C1.16602 8.42367 1.30649 8.08453 1.55654 7.83448C1.80659 7.58443 2.14573 7.44396 2.49935 7.44396H2.55935C2.78001 7.4388 2.99402 7.36737 3.17355 7.23897C3.35308 7.11056 3.48983 6.93112 3.56602 6.72396C3.65476 6.52288 3.68123 6.29983 3.64202 6.08357C3.60281 5.8673 3.49971 5.66774 3.34602 5.51063L3.30602 5.47063C3.18205 5.34679 3.0837 5.19974 3.0166 5.03788C2.9495 4.87601 2.91497 4.70251 2.91497 4.52729C2.91497 4.35207 2.9495 4.17857 3.0166 4.0167C3.0837 3.85484 3.18205 3.70779 3.30602 3.58396C3.42985 3.45999 3.5769 3.36164 3.73876 3.29455C3.90063 3.22745 4.07413 3.19291 4.24935 3.19291C4.42457 3.19291 4.59807 3.22745 4.75994 3.29455C4.9218 3.36164 5.06885 3.45999 5.19268 3.58396L5.23268 3.62396C5.3898 3.77765 5.58936 3.88075 5.80562 3.91996C6.02189 3.95917 6.24494 3.9327 6.44602 3.84396H6.49935C6.69653 3.75945 6.86469 3.61913 6.98314 3.44027C7.10159 3.26141 7.16516 3.05182 7.16602 2.83729V2.72396C7.16602 2.37034 7.30649 2.0312 7.55654 1.78115C7.80659 1.5311 8.14573 1.39063 8.49935 1.39062C8.85297 1.39063 9.19211 1.5311 9.44216 1.78115C9.69221 2.0312 9.83268 2.37034 9.83268 2.72396V2.78396C9.83354 2.99848 9.8971 3.20808 10.0156 3.38694C10.134 3.5658 10.3022 3.70612 10.4993 3.79063C10.7004 3.87937 10.9235 3.90584 11.1397 3.86663C11.356 3.82742 11.5556 3.72432 11.7127 3.57063L11.7527 3.53063C11.8765 3.40666 12.0236 3.30831 12.1854 3.24121C12.3473 3.17411 12.5208 3.13958 12.696 3.13958C12.8712 3.13958 13.0447 3.17411 13.2066 3.24121C13.3685 3.30831 13.5155 3.40666 13.6393 3.53063C13.7633 3.65446 13.8617 3.80151 13.9288 3.96337C13.9959 4.12524 14.0304 4.29874 14.0304 4.47396C14.0304 4.64918 13.9959 4.82268 13.9288 4.98455C13.8617 5.14641 13.7633 5.29346 13.6393 5.41729L13.5993 5.45729C13.4457 5.61441 13.3426 5.81397 13.3033 6.03023C13.2641 6.2465 13.2906 6.46955 13.3793 6.67063V6.72396C13.4639 6.92114 13.6042 7.0893 13.783 7.20775C13.9619 7.3262 14.1715 7.38977 14.386 7.39063H14.4993C14.853 7.39063 15.1921 7.5311 15.4422 7.78115C15.6922 8.0312 15.8327 8.37034 15.8327 8.72396C15.8327 9.07758 15.6922 9.41672 15.4422 9.66677C15.1921 9.91682 14.853 10.0573 14.4993 10.0573H14.4393C14.2248 10.0581 14.0152 10.1217 13.8364 10.2402C13.6575 10.3586 13.5172 10.5268 13.4327 10.724V10.724Z" stroke="#8F8F8F" stroke-width="2" stroke-linecap="round" stroke-linejoin="round"/>
</g>
<defs>
<clipPath id="clip0_679_6220">
<rect width="16" height="16" fill="white" transform="translate(0.5 0.722656)"/>
</clipPath>
</defs>
</svg>
