<svg width="22" height="22" viewBox="0 0 22 22" fill="none" xmlns="http://www.w3.org/2000/svg">
<path d="M11 0.5625C5.21046 0.5625 0.5 5.27296 0.5 11.0625C0.5 16.852 5.21046 21.5625 11 21.5625C16.7895 21.5625 21.5 16.852 21.5 11.0625C21.5 5.27296 16.7895 0.5625 11 0.5625ZM11 2.17788C15.9156 2.17788 19.8846 6.14688 19.8846 11.0625C19.8846 15.9781 15.9156 19.9471 11 19.9471C6.08438 19.9471 2.11538 15.9781 2.11538 11.0625C2.11538 6.14688 6.08438 2.17788 11 2.17788ZM10.975 4.80288C10.9038 4.81641 10.8355 4.84209 10.773 4.87881L10.3692 5.10577C10.3128 5.13887 10.2634 5.18278 10.224 5.23497C10.1846 5.28716 10.1558 5.34662 10.1394 5.40993C10.123 5.47325 10.1192 5.53919 10.1283 5.60397C10.1373 5.66875 10.1591 5.7311 10.1923 5.78746L13.65 11.7192L14.9125 10.9866L11.4539 5.05488C11.408 4.97015 11.338 4.90095 11.2527 4.85609C11.1675 4.81122 11.0708 4.7927 10.975 4.80288ZM9.91446 6.77204C9.81496 6.76072 9.71431 6.7785 9.62471 6.82323C9.53512 6.86796 9.46041 6.93771 9.40965 7.02404L8.98077 7.78165L10.2933 8.53846L10.7222 7.78085C10.789 7.66709 10.8079 7.53146 10.7747 7.40378C10.7415 7.2761 10.659 7.16681 10.5453 7.09996L10.0913 6.84715C10.0316 6.81242 9.97827 6.78173 9.91446 6.77204ZM8.87981 7.95773L5.82592 13.1827L7.11338 13.9403L10.1665 8.71454L8.87981 7.95773ZM4.53846 10.3307V11.7943H6.38081L7.23938 10.3307H4.53846ZM9.4355 10.3307L8.62781 11.7943H13.3472L12.5395 10.3307H9.4355ZM14.8365 10.3307L15.6192 11.7943H17.4365V10.3307H14.8365ZM15.0635 11.2394L13.8019 11.9712L14.5337 13.2336L15.7961 12.501L15.0635 11.2394ZM15.7202 12.8289C15.6751 12.838 15.6322 12.8553 15.5933 12.8798C15.389 12.9969 15.0926 13.1762 14.9125 13.2837C14.5748 13.4856 14.8365 14.0881 14.9125 14.2173C15.351 14.9523 15.809 14.8578 16.149 15.3788C16.3348 15.6623 16.2662 15.7891 16.3259 15.8836C16.3477 15.9183 16.4228 15.9498 16.4519 15.9087C16.9785 15.1801 16.834 13.9145 16.4519 13.3596C16.2977 13.1318 16.0158 12.7788 15.7202 12.8289ZM5.64904 13.4605L5.01823 15.8327C5.013 15.8565 5.01497 15.8812 5.0239 15.9038C5.03282 15.9264 5.04828 15.9458 5.06831 15.9595C5.10627 15.9813 5.16281 15.9652 5.19431 15.9337L6.96154 14.2173L5.64904 13.4605Z" fill="#8F8F8F"/>
</svg>
