<svg width="20" height="19" viewBox="0 0 20 19" fill="none" xmlns="http://www.w3.org/2000/svg">
<path d="M9.99989 9.50127C12.2463 9.50127 14.0767 7.67083 14.0767 5.42446C14.0767 3.1781 12.2463 1.34766 9.99989 1.34766C7.75353 1.34766 5.92309 3.1781 5.92309 5.42446C5.92309 7.67083 7.75353 9.50127 9.99989 9.50127ZM9.99989 2.17966C11.7887 2.17966 13.2447 3.63562 13.2447 5.42442C13.2447 7.21323 11.7887 8.66934 9.99989 8.66934C8.21109 8.66934 6.75513 7.21338 6.75513 5.42457C6.75513 3.63562 8.21109 2.17966 9.99989 2.17966ZM13.1199 10.9365H6.87989C3.44797 10.9365 0.639893 13.7445 0.639893 17.1765V17.4469C0.639893 17.5717 0.723029 17.655 0.847952 17.655H19.152C19.2767 17.655 19.36 17.5718 19.36 17.4469V17.1765C19.3599 13.7444 16.5518 10.9365 13.12 10.9365H13.1199ZM1.49269 16.8229C1.65911 14.0148 4.00942 11.7685 6.87989 11.7685H13.1199C15.9903 11.7685 18.3407 14.0149 18.5071 16.8229H1.49269Z" fill="white" stroke="#272DBC" stroke-width="0.75"/>
</svg>
