<svg width="111" height="102" viewBox="0 0 111 102" fill="none" xmlns="http://www.w3.org/2000/svg">
<path d="M20.78 76.0678H27.7067V82.983H13.8534V13.8305H6.92668V89.8983H27.7067V96.8136H0V6.91525H13.8534V0H34.6334C37.8081 0 40.8566 0.486229 43.7788 1.45869C46.701 2.43114 49.4248 3.88983 51.9501 5.83475C54.4394 3.88983 57.1451 2.43114 60.0673 1.45869C62.9895 0.486229 66.056 0 69.2668 0H90.0469V6.91525H103.9V51.1621L96.9736 48.0286V13.8305H90.0469V44.8951L83.1202 41.7076V6.91525H69.2668C66.7054 6.91525 64.2522 7.34746 61.9072 8.21186C59.5623 9.07627 57.3977 10.3549 55.4135 12.0477V44.8951L48.4868 48.0286V12.0477C46.5386 10.3909 44.3921 9.1303 42.0471 8.26589C39.7022 7.40148 37.2309 6.95127 34.6334 6.91525H20.78V76.0678ZM96.9736 89.8443L72.7302 102L48.4868 89.8443C48.4868 88.5477 48.5048 87.179 48.5409 85.7383C48.577 84.2977 48.7213 82.839 48.9738 81.3623C49.2263 79.8856 49.5871 78.4989 50.0561 77.2023C50.5251 75.9057 51.1745 74.6992 52.0042 73.5826L41.5601 68.8284V100.271H34.6334V65.6949L72.7302 48.4068L110.827 65.6949L93.4561 73.5826L93.889 74.1769C94.6466 75.2934 95.2238 76.5 95.6207 77.7966C96.0175 79.0932 96.3242 80.4078 96.5406 81.7405C96.7571 83.0731 96.8834 84.4417 96.9194 85.8464C96.9555 87.2511 96.9736 88.5837 96.9736 89.8443ZM72.7302 55.9703L51.3549 65.6949L72.7302 75.4195L94.1055 65.6949L72.7302 55.9703ZM72.7302 94.2744L90.0469 85.5763C90.0108 84.6398 89.9386 83.7934 89.8304 83.0371C89.7222 82.2807 89.5238 81.5424 89.2352 80.822C88.9465 80.1017 88.6579 79.3994 88.3693 78.715C88.0807 78.0307 87.6658 77.2744 87.1247 76.446L72.7302 82.983L58.3357 76.446C57.7945 77.3104 57.3616 78.0847 57.0369 78.7691C56.7122 79.4534 56.4236 80.1377 56.1711 80.822C55.9185 81.5064 55.7562 82.2267 55.684 82.983C55.6119 83.7394 55.5397 84.6218 55.4676 85.6303L72.7302 94.2744Z" fill="#373ED7"/>
</svg>
