<svg width="102" height="102" viewBox="0 0 102 102" fill="none" xmlns="http://www.w3.org/2000/svg">
<path d="M94.4444 60.4449H71.7775C69.7743 60.4469 67.8536 61.2436 66.4371 62.6601C65.0206 64.0766 64.2239 65.9973 64.2219 68.0005V75.5562H43.1191L26.4438 58.8809V37.7781H33.9995C36.0027 37.7761 37.9234 36.9794 39.3399 35.5629C40.7564 34.1464 41.5531 32.2257 41.5551 30.2225V7.55562C41.5531 5.55236 40.7564 3.63172 39.3399 2.2152C37.9234 0.798678 36.0027 0.00200026 33.9995 0H11.3326C9.32936 0.00200026 7.40872 0.798678 5.9922 2.2152C4.57568 3.63172 3.779 5.55236 3.777 7.55562V30.2225C3.779 32.2257 4.57568 34.1464 5.9922 35.5629C7.40872 36.9794 9.32936 37.7761 11.3326 37.7781H18.8882V58.8809L1.10609 76.663C0.397861 77.3715 0 78.3322 0 79.334C0 80.3357 0.397861 81.2964 1.10609 82.0049L19.9951 100.894C20.7036 101.602 21.6643 102 22.666 102C23.6678 102 24.6285 101.602 25.3369 100.894L43.1191 83.1118H64.2219V90.6674C64.2239 92.6706 65.0206 94.5913 66.4371 96.0078C67.8536 97.4243 69.7743 98.221 71.7775 98.223H94.4444C96.4476 98.221 98.3683 97.4243 99.7848 96.0078C101.201 94.5913 101.998 92.6706 102 90.6674V68.0005C101.998 65.9973 101.201 64.0766 99.7848 62.6601C98.3683 61.2436 96.4476 60.4469 94.4444 60.4449ZM11.3326 7.55562H33.9995V30.2225H11.3326V7.55562ZM22.666 92.8812L9.11882 79.334L22.666 65.7867L36.2133 79.334L22.666 92.8812ZM71.7775 90.6674V68.0005H94.4444V90.6674H71.7775Z" fill="#373ED7"/>
</svg>
