<svg width="79" height="102" viewBox="0 0 79 102" fill="none" xmlns="http://www.w3.org/2000/svg">
<path d="M44.7843 102C37.4624 102 30.7803 99.9628 24.738 95.8885C18.6957 91.8142 14.3239 86.3784 11.6226 79.5813L0.746405 52.275C0.46206 51.5667 0.267285 50.9108 0.162077 50.3073C0.0568694 49.7038 0.00284345 49.0138 0 48.2375C0 46.1125 0.817491 44.2354 2.45247 42.6062C4.08746 40.9771 5.97124 40.1625 8.10383 40.1625C8.60143 40.1625 9.04643 40.1809 9.43882 40.2178C9.83122 40.2546 10.2393 40.3424 10.6629 40.4812L13.9684 41.3313C14.9636 41.6146 15.8878 41.9872 16.7408 42.449C17.5938 42.9108 18.4113 43.4945 19.1933 44.2V19.125C19.1933 16.15 20.224 13.6354 22.2855 11.5812C24.347 9.52708 26.8706 8.5 29.8562 8.5C30.2827 8.5 30.6922 8.517 31.0846 8.551C31.477 8.585 31.8495 8.63883 32.202 8.7125C32.6286 6.02083 33.8555 3.89583 35.8829 2.3375C37.9103 0.779167 40.1665 0 42.6517 0C44.9265 0 46.9524 0.6205 48.7296 1.8615C50.5067 3.1025 51.7863 4.74867 52.5682 6.8C53.0658 6.65833 53.5464 6.55208 54.0099 6.48125C54.4733 6.41042 54.9525 6.375 55.4472 6.375C58.4328 6.375 60.9564 7.40208 63.0179 9.45625C65.0794 11.5104 66.1102 14.025 66.1102 17V19.3375C66.4656 19.2667 66.821 19.2143 67.1764 19.1803C67.5319 19.1462 67.8873 19.1278 68.2427 19.125C71.2284 19.125 73.7519 20.1521 75.8134 22.2062C77.8749 24.2604 78.9057 26.775 78.9057 29.75V68C78.9057 77.4917 75.6002 85.5312 68.9891 92.1187C62.3781 98.7062 54.3098 102 44.7843 102ZM44.7843 93.5C51.8929 93.5 57.9352 91.0208 62.9113 86.0625C67.8873 81.1042 70.3753 75.0833 70.3753 68V29.75C70.3753 29.1833 70.1621 28.6875 69.7355 28.2625C69.309 27.8375 68.8114 27.625 68.2427 27.625C67.674 27.625 67.1764 27.8375 66.7499 28.2625C66.3234 28.6875 66.1102 29.1833 66.1102 29.75V51H57.5798V17C57.5798 16.4333 57.3666 15.9375 56.94 15.5125C56.5135 15.0875 56.0159 14.875 55.4472 14.875C54.8785 14.875 54.3809 15.0875 53.9544 15.5125C53.5279 15.9375 53.3146 16.4333 53.3146 17V51H44.7843V10.625C44.7843 10.0583 44.571 9.5625 44.1445 9.1375C43.718 8.7125 43.2204 8.5 42.6517 8.5C42.083 8.5 41.5854 8.7125 41.1589 9.1375C40.7324 9.5625 40.5191 10.0583 40.5191 10.625V51H31.9888V19.125C31.9888 18.5583 31.7755 18.0625 31.349 17.6375C30.9225 17.2125 30.4249 17 29.8562 17C29.2875 17 28.7899 17.2125 28.3634 17.6375C27.9369 18.0625 27.7236 18.5583 27.7236 19.125V63.75H19.1933L15.0347 53.125C14.5371 51.9208 13.8433 51.0354 12.9533 50.4688C12.0633 49.9021 10.589 49.3 8.53034 48.6625L19.6198 76.5C21.6813 81.6 25.0039 85.7083 29.5875 88.825C34.1711 91.9417 39.2367 93.5 44.7843 93.5Z" fill="#272DBC"/>
</svg>
