<svg width="121" height="102" viewBox="0 0 121 102" fill="none" xmlns="http://www.w3.org/2000/svg">
<path d="M111.273 0H9.27273C6.81345 0 4.45489 0.976945 2.71592 2.71592C0.976945 4.45489 0 6.81345 0 9.27273V92.7273C0 95.1866 0.976945 97.5451 2.71592 99.2841C4.45489 101.023 6.81345 102 9.27273 102H17.0328C17.9103 102 18.7698 101.752 19.5116 101.283C20.2533 100.814 20.8467 100.144 21.223 99.3515C23.4775 94.5915 27.037 90.5694 31.4875 87.7529C35.9381 84.9364 41.0968 83.4412 46.3636 83.4412C51.6305 83.4412 56.7892 84.9364 61.2397 87.7529C65.6903 90.5694 69.2498 94.5915 71.5043 99.3515C71.8805 100.144 72.474 100.814 73.2157 101.283C73.9574 101.752 74.817 102 75.6944 102H111.273C113.732 102 116.091 101.023 117.83 99.2841C119.569 97.5451 120.545 95.1866 120.545 92.7273V9.27273C120.545 6.81345 119.569 4.45489 117.83 2.71592C116.091 0.976945 113.732 0 111.273 0ZM32.4545 60.2727C32.4545 57.5218 33.2703 54.8326 34.7986 52.5453C36.327 50.2579 38.4993 48.4751 41.0409 47.4224C43.5824 46.3697 46.3791 46.0942 49.0772 46.6309C51.7753 47.1676 54.2536 48.4923 56.1988 50.4375C58.1441 52.3827 59.4688 54.8611 60.0055 57.5592C60.5422 60.2573 60.2667 63.054 59.214 65.5955C58.1612 68.1371 56.3785 70.3094 54.0911 71.8377C51.8038 73.3661 49.1146 74.1818 46.3636 74.1818C42.6747 74.1818 39.1369 72.7164 36.5284 70.1079C33.92 67.4995 32.4545 63.9616 32.4545 60.2727ZM111.273 92.7273H78.4878C74.6161 86.0707 68.7799 80.775 61.7795 77.5664C65.2892 74.4413 67.7662 70.3234 68.8822 65.7586C69.9983 61.1937 69.7006 56.3974 68.0287 52.0056C66.3568 47.6137 63.3896 43.8337 59.5204 41.1666C55.6513 38.4996 51.063 37.0714 46.3636 37.0714C41.6643 37.0714 37.076 38.4996 33.2068 41.1666C29.3377 43.8337 26.3705 47.6137 24.6986 52.0056C23.0267 56.3974 22.729 61.1937 23.845 65.7586C24.9611 70.3234 27.4381 74.4413 30.9477 77.5664C23.9474 80.775 18.1112 86.0707 14.2394 92.7273H9.27273V9.27273H111.273V92.7273ZM18.5455 32.4545V23.1818C18.5455 21.9522 19.0339 20.7729 19.9034 19.9034C20.7729 19.0339 21.9522 18.5455 23.1818 18.5455H97.3636C98.5933 18.5455 99.7726 19.0339 100.642 19.9034C101.512 20.7729 102 21.9522 102 23.1818V78.8182C102 80.0478 101.512 81.2271 100.642 82.0966C99.7726 82.9661 98.5933 83.4545 97.3636 83.4545H88.0909C86.8613 83.4545 85.682 82.9661 84.8125 82.0966C83.943 81.2271 83.4545 80.0478 83.4545 78.8182C83.4545 77.5885 83.943 76.4093 84.8125 75.5398C85.682 74.6703 86.8613 74.1818 88.0909 74.1818H92.7273V27.8182H27.8182V32.4545C27.8182 33.6842 27.3297 34.8635 26.4602 35.7329C25.5907 36.6024 24.4115 37.0909 23.1818 37.0909C21.9522 37.0909 20.7729 36.6024 19.9034 35.7329C19.0339 34.8635 18.5455 33.6842 18.5455 32.4545Z" fill="#373ED7"/>
</svg>
