<svg width="105" height="105" viewBox="0 0 105 105" fill="none" xmlns="http://www.w3.org/2000/svg">
<path d="M52.5 7H56C56 6.35055 55.8193 5.71392 55.4781 5.16132C55.1369 4.60872 54.6486 4.16195 54.068 3.871L52.5 7ZM52.5 14L54.068 17.129C54.6486 16.838 55.1369 16.3913 55.4781 15.8387C55.8193 15.2861 56 14.6494 56 14H52.5ZM45.5 17.5L43.932 14.371C43.3843 14.6458 42.9184 15.0595 42.5808 15.5709C42.2432 16.0822 42.0458 16.6732 42.0082 17.2847C41.9707 17.8963 42.0943 18.507 42.3668 19.0558C42.6393 19.6046 43.0511 20.0723 43.561 20.412L45.5 17.5ZM56 24.5L54.061 27.412C54.6352 27.7949 55.3098 27.9995 56 28V24.5ZM59.5 24.5V28C60.4283 28 61.3185 27.6313 61.9749 26.9749C62.6313 26.3185 63 25.4283 63 24.5H59.5ZM59.5 17.5V14C58.5717 14 57.6815 14.3687 57.0251 15.0251C56.3687 15.6815 56 16.5717 56 17.5H59.5ZM70 17.5H73.5C73.5 16.5717 73.1313 15.6815 72.4749 15.0251C71.8185 14.3687 70.9283 14 70 14V17.5ZM70 24.5H66.5C66.4992 24.9599 66.589 25.4155 66.7644 25.8407C66.9397 26.2659 67.1972 26.6524 67.522 26.978L70 24.5ZM73.5 28H77C77.0008 27.5401 76.911 27.0845 76.7356 26.6593C76.5603 26.2341 76.3028 25.8476 75.978 25.522L73.5 28ZM73.5 35L75.978 37.478C76.3028 37.1524 76.5603 36.7659 76.7356 36.3407C76.911 35.9155 77.0008 35.4599 77 35H73.5ZM70 38.5V42C70.4599 42.0008 70.9155 41.911 71.3407 41.7356C71.7659 41.5603 72.1524 41.3028 72.478 40.978L70 38.5ZM63 38.5L61.432 41.629C61.9187 41.8729 62.4556 42 63 42V38.5ZM49 31.5L50.568 28.371C50.0813 28.1271 49.5444 28.0001 49 28.0001C48.4556 28.0001 47.9187 28.1271 47.432 28.371L49 31.5ZM42 35V38.5C42.5444 38.5 43.0813 38.3729 43.568 38.129L42 35ZM31.5 35V31.5C30.7193 31.5002 29.9611 31.7615 29.3459 32.2422C28.7307 32.7229 28.2939 33.3955 28.105 34.153L31.5 35ZM28 49L24.605 48.153C24.4577 48.7392 24.4648 49.3536 24.6255 49.9363C24.7862 50.519 25.095 51.0501 25.522 51.478L28 49ZM38.5 59.5L36.022 61.978C36.2885 62.2424 36.5957 62.4622 36.932 62.629L38.5 59.5ZM45.5 63H49C49 62.3506 48.8193 61.7139 48.4781 61.1613C48.1369 60.6087 47.6486 60.162 47.068 59.871L45.5 63ZM45.5 73.5H42C41.9992 73.9599 42.089 74.4155 42.2644 74.8407C42.4397 75.2659 42.6972 75.6524 43.022 75.978L45.5 73.5ZM49 77H52.5C52.5008 76.5401 52.411 76.0845 52.2356 75.6593C52.0603 75.2341 51.8028 74.8476 51.478 74.522L49 77ZM49 84H45.5C45.5 84.5444 45.6271 85.0813 45.871 85.568L49 84ZM52.5 91L49.371 92.568C49.662 93.1486 50.1087 93.6369 50.6613 93.9781C51.2139 94.3193 51.8506 94.5 52.5 94.5V91ZM59.5 91V94.5C60.0764 94.4997 60.6438 94.3571 61.1518 94.0847C61.6598 93.8124 62.0927 93.4189 62.412 92.939L59.5 91ZM66.5 80.5L69.412 82.439C69.4919 82.3199 69.5643 82.196 69.629 82.068L66.5 80.5ZM70 73.5L73.129 75.068C73.3729 74.5813 73.5 74.0444 73.5 73.5H70ZM70 66.5L67.2 64.4C66.7456 65.0058 66.5 65.7427 66.5 66.5H70ZM80.5 52.5L83.3 54.6C83.6903 54.0796 83.9278 53.4607 83.9859 52.8128C84.0441 52.1649 83.9204 51.5136 83.629 50.932L80.5 52.5ZM77 45.5V42C76.4032 42 75.8162 42.1527 75.295 42.4434C74.7738 42.7342 74.3355 43.1534 74.022 43.6613C73.7085 44.1692 73.53 44.7488 73.5036 45.345C73.4771 45.9413 73.6036 46.5344 73.871 47.068L77 45.5ZM87.5 45.5V49C88.4283 49 89.3185 48.6312 89.9749 47.9749C90.6313 47.3185 91 46.4283 91 45.5H87.5ZM87.5 38.5V35C86.5717 35 85.6815 35.3688 85.0251 36.0251C84.3687 36.6815 84 37.5717 84 38.5H87.5ZM52.5 98C40.4326 98 28.8595 93.2063 20.3266 84.6734C11.7937 76.1405 7 64.5674 7 52.5H0C0 66.4239 5.53123 79.7774 15.3769 89.6231C25.2226 99.4688 38.5761 105 52.5 105V98ZM98 52.5C98 58.4751 96.8231 64.3918 94.5365 69.9121C92.2499 75.4324 88.8984 80.4483 84.6734 84.6734C80.4483 88.8984 75.4324 92.2499 69.9121 94.5365C64.3918 96.8231 58.4751 98 52.5 98V105C66.4239 105 79.7774 99.4688 89.6231 89.6231C99.4688 79.7774 105 66.4239 105 52.5H98ZM52.5 7C58.4751 7 64.3918 8.17689 69.9121 10.4635C75.4324 12.7501 80.4483 16.1016 84.6734 20.3266C88.8984 24.5517 92.2499 29.5676 94.5365 35.0879C96.8231 40.6082 98 46.5249 98 52.5H105C105 38.5761 99.4688 25.2226 89.6231 15.3769C79.7774 5.53123 66.4239 0 52.5 0V7ZM52.5 0C38.5761 0 25.2226 5.53123 15.3769 15.3769C5.53123 25.2226 0 38.5761 0 52.5H7C7 40.4326 11.7937 28.8595 20.3266 20.3266C28.8595 11.7937 40.4326 7 52.5 7V0ZM43.932 6.629L50.932 10.129L54.068 3.871L47.068 0.371L43.932 6.629ZM49 7V14H56V7H49ZM50.932 10.871L43.932 14.371L47.068 20.629L54.068 17.129L50.932 10.871ZM43.561 20.412L54.061 27.412L57.939 21.588L47.439 14.588L43.561 20.412ZM56 28H59.5V21H56V28ZM63 24.5V17.5H56V24.5H63ZM59.5 21H70V14H59.5V21ZM66.5 17.5V24.5H73.5V17.5H66.5ZM67.522 26.978L71.022 30.478L75.978 25.522L72.478 22.022L67.522 26.978ZM70 28V35H77V28H70ZM71.022 32.522L67.522 36.022L72.478 40.978L75.978 37.478L71.022 32.522ZM70 35H63V42H70V35ZM64.568 35.371L50.568 28.371L47.432 34.629L61.432 41.629L64.568 35.371ZM47.432 28.371L40.432 31.871L43.568 38.129L50.568 34.629L47.432 28.371ZM42 31.5H31.5V38.5H42V31.5ZM28.105 34.153L24.605 48.153L31.395 49.847L34.895 35.847L28.105 34.153ZM25.522 51.478L36.022 61.978L40.978 57.022L30.478 46.522L25.522 51.478ZM36.932 62.629L43.932 66.129L47.068 59.871L40.068 56.371L36.932 62.629ZM42 63V73.5H49V63H42ZM43.022 75.978L46.522 79.478L51.478 74.522L47.978 71.022L43.022 75.978ZM45.5 77V84H52.5V77H45.5ZM45.871 85.568L49.371 92.568L55.629 89.432L52.129 82.432L45.871 85.568ZM52.5 94.5H59.5V87.5H52.5V94.5ZM62.412 92.939L69.412 82.439L63.588 78.561L56.588 89.061L62.412 92.939ZM69.629 82.068L73.129 75.068L66.871 71.932L63.371 78.932L69.629 82.068ZM73.5 73.5V66.5H66.5V73.5H73.5ZM72.8 68.6L83.3 54.6L77.7 50.4L67.2 64.4L72.8 68.6ZM83.629 50.932L80.129 43.932L73.871 47.068L77.371 54.068L83.629 50.932ZM77 49H87.5V42H77V49ZM91 45.5V38.5H84V45.5H91ZM87.5 42H101.5V35H87.5V42Z" fill="#373ED7"/>
</svg>
