<svg width="85" height="102" viewBox="0 0 85 102" fill="none" xmlns="http://www.w3.org/2000/svg">
<path d="M73.8621 31.6552H10.5517C7.75409 31.658 5.07184 32.7706 3.09361 34.7488C1.11539 36.727 0.00279345 39.4093 0 42.2069V63.3103C0.0018623 65.1754 0.743592 66.9636 2.06241 68.2824C3.38123 69.6012 5.16939 70.343 7.03448 70.3448V94.9655C7.03635 96.8306 7.77807 98.6188 9.09689 99.9376C10.4157 101.256 12.2039 101.998 14.069 102H28.1379C30.003 101.998 31.7912 101.256 33.11 99.9376C34.4288 98.6188 35.1706 96.8306 35.1724 94.9655V52.7586H28.1379V94.9655H14.069V63.3103H7.03448V42.2069C7.03448 41.2741 7.40505 40.3794 8.06466 39.7198C8.72427 39.0602 9.61889 38.6897 10.5517 38.6897H73.8621C74.7949 38.6897 75.6895 39.0602 76.3491 39.7198C77.0087 40.3794 77.3793 41.2741 77.3793 42.2069V63.3103H70.3448V94.9655H56.2759V52.7586H49.2414V94.9655C49.2432 96.8306 49.985 98.6188 51.3038 99.9376C52.6226 101.256 54.4108 101.998 56.2759 102H70.3448C72.2099 101.998 73.9981 101.256 75.3169 99.9376C76.6357 98.6188 77.3774 96.8306 77.3793 94.9655V70.3448C79.2444 70.343 81.0326 69.6012 82.3514 68.2824C83.6702 66.9636 84.4119 65.1754 84.4138 63.3103V42.2069C84.411 39.4093 83.2984 36.727 81.3202 34.7488C79.3419 32.7706 76.6597 31.658 73.8621 31.6552ZM21.1034 28.1379C18.3209 28.1379 15.6008 27.3128 13.2871 25.7669C10.9735 24.221 9.17027 22.0237 8.10542 19.4529C7.04057 16.8822 6.76196 14.0534 7.30481 11.3243C7.84767 8.59514 9.18761 6.08829 11.1552 4.12071C13.1228 2.15313 15.6296 0.813192 18.3587 0.270338C21.0878 -0.272517 23.9166 0.00609582 26.4874 1.07094C29.0582 2.13579 31.2554 3.93904 32.8014 6.25267C34.3473 8.5663 35.1724 11.2864 35.1724 14.069C35.1687 17.7992 33.6852 21.3755 31.0476 24.0131C28.41 26.6508 24.8336 28.1342 21.1034 28.1379ZM21.1034 7.03449C19.7122 7.03449 18.3521 7.44705 17.1953 8.22001C16.0385 8.99297 15.1369 10.0916 14.6044 11.377C14.072 12.6624 13.9327 14.0768 14.2041 15.4413C14.4756 16.8059 15.1455 18.0593 16.1293 19.0431C17.1131 20.0269 18.3665 20.6969 19.7311 20.9683C21.0956 21.2397 22.51 21.1004 23.7954 20.568C25.0808 20.0356 26.1794 19.1339 26.9524 17.9771C27.7254 16.8203 28.1379 15.4603 28.1379 14.069C28.1361 12.2039 27.3943 10.4157 26.0755 9.0969C24.7567 7.77808 22.9685 7.03635 21.1034 7.03449ZM63.3103 28.1379C60.5278 28.1379 57.8077 27.3128 55.494 25.7669C53.1804 24.221 51.3772 22.0237 50.3123 19.4529C49.2475 16.8822 48.9689 14.0534 49.5117 11.3243C50.0546 8.59514 51.3945 6.08829 53.3621 4.12071C55.3297 2.15313 57.8365 0.813192 60.5656 0.270338C63.2947 -0.272517 66.1235 0.00609582 68.6943 1.07094C71.2651 2.13579 73.4623 3.93904 75.0083 6.25267C76.5542 8.5663 77.3793 11.2864 77.3793 14.069C77.3756 17.7992 75.8921 21.3755 73.2545 24.0131C70.6169 26.6508 67.0405 28.1342 63.3103 28.1379ZM63.3103 7.03449C61.9191 7.03449 60.559 7.44705 59.4022 8.22001C58.2454 8.99297 57.3438 10.0916 56.8113 11.377C56.2789 12.6624 56.1396 14.0768 56.411 15.4413C56.6825 16.8059 57.3524 18.0593 58.3362 19.0431C59.32 20.0269 60.5734 20.6969 61.938 20.9683C63.3025 21.2397 64.7169 21.1004 66.0023 20.568C67.2877 20.0356 68.3863 19.1339 69.1593 17.9771C69.9323 16.8203 70.3448 15.4603 70.3448 14.069C70.343 12.2039 69.6012 10.4157 68.2824 9.0969C66.9636 7.77808 65.1754 7.03635 63.3103 7.03449Z" fill="#373ED7"/>
</svg>
