<svg width="17" height="16" viewBox="0 0 17 16" fill="none" xmlns="http://www.w3.org/2000/svg">
<path d="M16.1511 8.18692C16.1511 7.64479 16.1062 7.09974 16.0105 6.56641H8.3335V9.63747H12.7298C12.5473 10.6279 11.9612 11.5041 11.1028 12.0609V14.0536H13.7256C15.2658 12.6646 16.1511 10.6133 16.1511 8.18692Z" fill="#4285F4"/>
<path d="M8.33333 15.9781C10.5285 15.9781 12.3797 15.2719 13.7285 14.0529L11.1057 12.0602C10.3759 12.5466 9.43389 12.8221 8.33632 12.8221C6.21296 12.8221 4.41258 11.4184 3.7666 9.53125H1.06006V11.5855C2.44174 14.2785 5.25595 15.9781 8.33333 15.9781Z" fill="#34A853"/>
<path d="M3.76368 9.53152C3.42275 8.54104 3.42275 7.46852 3.76368 6.47804V4.42383H1.06013C-0.0942621 6.67731 -0.0942621 9.33225 1.06013 11.5857L3.76368 9.53152Z" fill="#FBBC04"/>
<path d="M8.33333 3.18393C9.4937 3.16634 10.6152 3.59418 11.4556 4.37953L13.7793 2.10261C12.3079 0.74876 10.355 0.00443796 8.33333 0.0278812C5.25595 0.0278812 2.44174 1.72751 1.06006 4.42349L3.76361 6.4777C4.4066 4.58759 6.20997 3.18393 8.33333 3.18393Z" fill="#EA4335"/>
</svg>
