<svg width="104" height="125" viewBox="0 0 104 125" fill="none" xmlns="http://www.w3.org/2000/svg">
<path d="M73.6641 91.2418H30.3307V34.5288H73.6641V39.2549H82.3307V20.3506C82.3307 15.1519 78.4307 10.8984 73.6641 10.8984H30.3307C25.5641 10.8984 21.6641 15.1519 21.6641 20.3506V105.42C21.6641 110.619 25.5641 114.872 30.3307 114.872H73.6641C78.4307 114.872 82.3307 110.619 82.3307 105.42V86.5157H73.6641V91.2418ZM88.3107 51.6372L90.0441 55.7489C90.4341 56.6942 91.6474 56.6942 92.0374 55.7489L93.7707 51.6372L97.5407 49.7468C98.4074 49.3215 98.4074 47.9982 97.5407 47.5728L93.7707 45.6824L92.0374 41.5707C91.6474 40.6255 90.4341 40.6255 90.0441 41.5707L88.3107 45.6824L84.5407 47.5728C83.6741 47.9982 83.6741 49.3215 84.5407 49.7468L88.3107 51.6372Z" fill="#272DBC"/>
<path d="M67.3414 48.7063L63.9181 56.977L56.3348 60.7106C55.9565 60.8985 55.6358 61.2012 55.4109 61.5825C55.186 61.9638 55.0664 62.4076 55.0664 62.8609C55.0664 63.3143 55.186 63.7581 55.4109 64.1394C55.6358 64.5207 55.9565 64.8233 56.3348 65.0113L63.9181 68.7449L67.3414 77.0628C67.5138 77.4754 67.7913 77.8252 68.1409 78.0704C68.4905 78.3157 68.8974 78.4461 69.3131 78.4461C69.7288 78.4461 70.1357 78.3157 70.4853 78.0704C70.8349 77.8252 71.1124 77.4754 71.2848 77.0628L74.7081 68.7922L82.3348 65.0586C82.713 64.8706 83.0337 64.5679 83.2586 64.1866C83.4835 63.8054 83.6031 63.3616 83.6031 62.9082C83.6031 62.4548 83.4835 62.0111 83.2586 61.6298C83.0337 61.2485 82.713 60.9458 82.3348 60.7578L74.7514 57.0242L71.3281 48.7063C71.1506 48.2932 70.8688 47.9438 70.5158 47.699C70.1628 47.4542 69.7531 47.3242 69.3348 47.3242C68.9164 47.3242 68.5068 47.4542 68.1537 47.699C67.8007 47.9438 67.5189 48.2932 67.3414 48.7063ZM90.0048 69.9737L88.2714 74.0854L84.5014 75.9758C83.6348 76.4012 83.6348 77.7245 84.5014 78.1498L88.2714 80.0402L90.0048 84.1519C90.3948 85.0972 91.6081 85.0972 91.9981 84.1519L93.7314 80.0402L97.5014 78.1498C98.3681 77.7245 98.3681 76.4012 97.5014 75.9758L93.7314 74.0854L91.9981 69.9737C91.9057 69.7716 91.7635 69.6016 91.5875 69.4828C91.4114 69.364 91.2085 69.301 91.0014 69.301C90.7944 69.301 90.5914 69.364 90.4154 69.4828C90.2393 69.6016 90.0971 69.7716 90.0048 69.9737Z" fill="#272DBC"/>
</svg>
