<svg width="97" height="32" viewBox="0 0 97 32" fill="none" xmlns="http://www.w3.org/2000/svg">
<path d="M42.7557 21.4604C41.733 21.4604 40.8405 21.226 40.0781 20.7573C39.3158 20.2885 38.724 19.6328 38.3026 18.79C37.8812 17.9471 37.6705 16.9623 37.6705 15.8354C37.6705 14.7038 37.8812 13.7142 38.3026 12.8667C38.724 12.0191 39.3158 11.361 40.0781 10.8922C40.8405 10.4235 41.733 10.1891 42.7557 10.1891C43.7784 10.1891 44.6709 10.4235 45.4333 10.8922C46.1956 11.361 46.7874 12.0191 47.2088 12.8667C47.6302 13.7142 47.8409 14.7038 47.8409 15.8354C47.8409 16.9623 47.6302 17.9471 47.2088 18.79C46.7874 19.6328 46.1956 20.2885 45.4333 20.7573C44.6709 21.226 43.7784 21.4604 42.7557 21.4604ZM42.7628 19.6777C43.4257 19.6777 43.9749 19.5025 44.4105 19.1522C44.8461 18.8018 45.1681 18.3354 45.3764 17.753C45.5895 17.1706 45.696 16.5291 45.696 15.8283C45.696 15.1323 45.5895 14.4931 45.3764 13.9107C45.1681 13.3236 44.8461 12.8525 44.4105 12.4973C43.9749 12.1422 43.4257 11.9647 42.7628 11.9647C42.0952 11.9647 41.5412 12.1422 41.1009 12.4973C40.6653 12.8525 40.3409 13.3236 40.1279 13.9107C39.9195 14.4931 39.8154 15.1323 39.8154 15.8283C39.8154 16.5291 39.9195 17.1706 40.1279 17.753C40.3409 18.3354 40.6653 18.8018 41.1009 19.1522C41.5412 19.5025 42.0952 19.6777 42.7628 19.6777ZM52.6113 21.2402V10.3311H54.6639V12.0641H54.7775C54.9764 11.477 55.3267 11.0153 55.8286 10.6792C56.3353 10.3382 56.9082 10.1678 57.5474 10.1678C57.68 10.1678 57.8362 10.1725 58.0161 10.182C58.2008 10.1915 58.3452 10.2033 58.4494 10.2175V12.2488C58.3641 12.2251 58.2126 12.199 57.9948 12.1706C57.777 12.1375 57.5592 12.1209 57.3414 12.1209C56.8395 12.1209 56.3921 12.2274 55.9991 12.4405C55.6108 12.6489 55.3031 12.94 55.0758 13.3141C54.8485 13.6834 54.7349 14.1048 54.7349 14.5783V21.2402H52.6113ZM62.8575 21.2402V6.69478H64.9811V12.0996H65.109C65.2321 11.8723 65.4096 11.6096 65.6416 11.3113C65.8736 11.013 66.1956 10.7525 66.6075 10.53C67.0195 10.3027 67.564 10.1891 68.2411 10.1891C69.1217 10.1891 69.9077 10.4116 70.599 10.8567C71.2903 11.3018 71.8325 11.9434 72.2254 12.7814C72.6232 13.6195 72.822 14.628 72.822 15.807C72.822 16.986 72.6255 17.9969 72.2325 18.8397C71.8396 19.6777 71.2998 20.324 70.6132 20.7786C69.9267 21.2284 69.1431 21.4533 68.2624 21.4533C67.5995 21.4533 67.0574 21.342 66.636 21.1195C66.2193 20.897 65.8926 20.6365 65.6558 20.3382C65.4191 20.04 65.2368 19.7748 65.109 19.5428H64.9314V21.2402H62.8575ZM64.9385 15.7857C64.9385 16.5527 65.0498 17.2251 65.2723 17.8027C65.4949 18.3804 65.8168 18.8326 66.2382 19.1593C66.6596 19.4812 67.1757 19.6422 67.7865 19.6422C68.421 19.6422 68.9513 19.4741 69.3774 19.138C69.8036 18.7971 70.1255 18.3354 70.3433 17.753C70.5659 17.1706 70.6771 16.5149 70.6771 15.7857C70.6771 15.066 70.5682 14.4197 70.3504 13.8468C70.1374 13.2739 69.8154 12.8217 69.3845 12.4902C68.9584 12.1588 68.4257 11.9931 67.7865 11.9931C67.171 11.9931 66.6502 12.1517 66.224 12.4689C65.8026 12.7862 65.483 13.2289 65.2652 13.7971C65.0474 14.3652 64.9385 15.0281 64.9385 15.7857ZM77.6066 21.2402V10.3311H79.7302V21.2402H77.6066ZM78.6791 8.6479C78.3097 8.6479 77.9925 8.5248 77.7274 8.27859C77.4669 8.02764 77.3367 7.72934 77.3367 7.3837C77.3367 7.03332 77.4669 6.73503 77.7274 6.48881C77.9925 6.23787 78.3097 6.11239 78.6791 6.11239C79.0484 6.11239 79.3633 6.23787 79.6237 6.48881C79.8888 6.73503 80.0214 7.03332 80.0214 7.3837C80.0214 7.72934 79.8888 8.02764 79.6237 8.27859C79.3633 8.5248 79.0484 8.6479 78.6791 8.6479ZM90.0794 10.3311V12.0357H84.1206V10.3311H90.0794ZM85.7186 7.71751H87.8422V18.0371C87.8422 18.449 87.9038 18.7592 88.0269 18.9675C88.15 19.1711 88.3086 19.3108 88.5027 19.3865C88.7016 19.4576 88.917 19.4931 89.149 19.4931C89.3195 19.4931 89.4686 19.4812 89.5965 19.4576C89.7243 19.4339 89.8237 19.415 89.8948 19.4007L90.2783 21.155C90.1552 21.2024 89.98 21.2497 89.7527 21.2971C89.5254 21.3491 89.2414 21.3775 88.9004 21.3823C88.3417 21.3917 87.8209 21.2923 87.3379 21.084C86.855 20.8757 86.4644 20.5537 86.1661 20.1181C85.8678 19.6825 85.7186 19.1356 85.7186 18.4775V7.71751Z" fill="#333333"/>
<path d="M16.137 0V1.89305C14.8793 1.89546 13.6604 2.06348 12.5 2.37536L12.015 0.546045C13.3301 0.192154 14.7118 0.00241399 16.137 0Z" fill="#2F58F2"/>
<path d="M20.819 29.4502C19.362 29.9699 17.7975 30.2525 16.1689 30.2525H16.1382V28.2932H16.1689C16.3817 28.2932 16.5926 28.2873 16.8025 28.2764C16.8322 28.2749 16.8629 28.2735 16.8926 28.271C16.9271 28.2695 16.9611 28.2675 16.9947 28.2646C17.0685 28.2591 17.1423 28.2537 17.2161 28.2473C17.243 28.2453 17.2703 28.2423 17.2976 28.2399C17.4218 28.2285 17.5459 28.2147 17.6686 28.1994C17.7199 28.1929 17.7716 28.1865 17.8229 28.1791C17.8665 28.1732 17.9102 28.1672 17.9528 28.1603C18.0856 28.1406 18.2169 28.1188 18.3482 28.0946C18.3957 28.0857 18.4431 28.0768 18.4901 28.068C18.4935 28.067 18.4968 28.0665 18.4997 28.066C18.5467 28.0566 18.5936 28.0472 18.6406 28.0373C18.7945 28.0047 18.9469 27.9696 19.0988 27.9316C19.1592 27.9163 19.2191 27.901 19.2795 27.8847C19.2891 27.8822 19.2982 27.8802 19.3078 27.8768C19.3644 27.8615 19.4214 27.8461 19.478 27.8293C19.5158 27.8185 19.5537 27.8076 19.592 27.7958C19.6448 27.7799 19.6975 27.7646 19.7497 27.7478C19.766 27.7429 19.7823 27.738 19.7981 27.7325C19.8523 27.7152 19.9065 27.6974 19.9601 27.6797C19.986 27.6713 20.0114 27.6624 20.0373 27.654C20.0498 27.65 20.0622 27.6456 20.0742 27.6411C20.1102 27.6293 20.1466 27.6164 20.1825 27.6036C20.1878 27.6021 20.1931 27.6001 20.1984 27.5977L20.819 29.4502Z" fill="#2F58F2"/>
<path d="M30.2474 16.0548C30.2474 17.4382 30.0488 18.7757 29.6789 20.0404C28.909 22.6716 27.3968 24.9901 25.3812 26.7605L24.1018 25.324C24.1599 25.2724 24.2179 25.2208 24.2755 25.1687C24.3253 25.1228 24.3751 25.077 24.4238 25.0307C24.4765 24.9814 24.5288 24.9308 24.581 24.8796C24.6068 24.8545 24.6332 24.8285 24.659 24.8034C24.6878 24.7744 24.7166 24.746 24.7454 24.7165C24.7927 24.6683 24.8401 24.6191 24.8879 24.5698C24.9376 24.5172 24.9879 24.4647 25.0367 24.4111C25.0635 24.3821 25.0904 24.3527 25.1167 24.3233C25.1387 24.2987 25.1611 24.2745 25.1831 24.2494C25.2314 24.1954 25.2797 24.1409 25.3265 24.0859C25.3739 24.0309 25.4207 23.9754 25.4671 23.9199C25.5061 23.8731 25.5451 23.8258 25.5832 23.778C25.6842 23.6531 25.7823 23.5261 25.8779 23.3973C25.8964 23.3727 25.9145 23.3486 25.9325 23.3235C25.997 23.2357 26.0599 23.1479 26.1219 23.0586C26.1668 22.9939 26.2112 22.9288 26.2551 22.8632C26.2721 22.8366 26.2897 22.8106 26.3068 22.7845C26.3244 22.758 26.3414 22.7314 26.3585 22.7049C26.3849 22.6639 26.4107 22.6234 26.4356 22.5823C26.4566 22.5495 26.4776 22.5167 26.4976 22.4834C26.5337 22.425 26.5693 22.3652 26.6049 22.3054C26.6386 22.2489 26.6713 22.1915 26.704 22.1346C26.7211 22.1051 26.7381 22.0752 26.7547 22.0453C26.783 21.9941 26.8113 21.9435 26.8391 21.8918C26.8504 21.8706 26.8626 21.8489 26.8738 21.8272C26.8894 21.7992 26.904 21.7707 26.9187 21.7423C26.9343 21.7128 26.9494 21.6829 26.9645 21.6535C27.0167 21.5531 27.0665 21.4518 27.1148 21.3495C27.1304 21.3172 27.1456 21.2853 27.1607 21.253C27.1787 21.2144 27.1968 21.1748 27.2144 21.1362C27.2383 21.0841 27.2612 21.0325 27.2846 20.9799C27.2944 20.9577 27.3041 20.935 27.3134 20.9128C27.3378 20.8578 27.3607 20.8028 27.3842 20.7468C27.3851 20.7449 27.3856 20.743 27.3866 20.7406C27.4105 20.6831 27.4339 20.6247 27.4569 20.5668C27.4617 20.5557 27.4656 20.5451 27.4695 20.5336C27.4954 20.4679 27.5208 20.4013 27.5452 20.3357C27.5579 20.3015 27.5705 20.2667 27.5827 20.2325C27.5959 20.1968 27.6086 20.1615 27.6208 20.1258C27.6452 20.0563 27.6686 19.9873 27.692 19.9174C27.7018 19.8879 27.7116 19.859 27.7208 19.8291C27.7569 19.7176 27.7916 19.6052 27.8238 19.4928C27.8638 19.3562 27.9019 19.2187 27.936 19.0802C27.9536 19.0107 27.9707 18.9417 27.9872 18.8717L28.0073 18.7844C28.017 18.7434 28.0258 18.7029 28.0346 18.6619C28.0502 18.5919 28.0643 18.5219 28.0785 18.451C28.0853 18.4172 28.0917 18.3839 28.098 18.3497C28.1058 18.3115 28.1126 18.2725 28.119 18.2343C28.1317 18.1639 28.1439 18.0934 28.1551 18.023C28.1663 17.9525 28.1771 17.8816 28.1878 17.8112C28.1932 17.7755 28.198 17.7398 28.2029 17.704C28.2078 17.6679 28.2122 17.6322 28.2171 17.5964C28.2219 17.5603 28.2263 17.5241 28.2298 17.4884C28.2337 17.4522 28.238 17.4165 28.2415 17.3803C28.2415 17.3803 28.242 17.3803 28.242 17.3798C28.2424 17.3788 28.2424 17.3779 28.242 17.3764C28.2473 17.3315 28.2517 17.2867 28.2561 17.2413C28.262 17.1863 28.2668 17.1313 28.2712 17.0758C28.2766 17.0184 28.2805 16.9605 28.2844 16.9031C28.2873 16.8582 28.2903 16.8128 28.2927 16.768C28.2995 16.657 28.3039 16.5445 28.3073 16.4326C28.3088 16.3906 28.3098 16.3491 28.3103 16.3071C28.3112 16.2907 28.3112 16.2743 28.3112 16.2579L28.3127 16.1725C28.3132 16.1334 28.3132 16.0934 28.3132 16.0538C28.3132 15.994 28.3127 15.9351 28.3117 15.8758C28.3108 15.7826 28.3083 15.6895 28.3044 15.5974C28.3034 15.5592 28.302 15.5216 28.2995 15.4835C28.2971 15.4227 28.2937 15.3629 28.2903 15.3025C28.2878 15.2615 28.2849 15.221 28.282 15.18C28.279 15.1361 28.2756 15.0917 28.2722 15.0478C28.2356 14.5932 28.1736 14.145 28.0887 13.7059C28.0765 13.6422 28.0634 13.579 28.0502 13.5162C28.0487 13.5076 28.0468 13.4989 28.0448 13.4907C28.0385 13.4612 28.0326 13.4323 28.0258 13.4029C27.9555 13.0844 27.8731 12.7703 27.7784 12.4615C27.7691 12.4291 27.7594 12.3973 27.7491 12.3654C27.6779 12.1391 27.6008 11.9152 27.5169 11.6952C27.492 11.6291 27.4661 11.5625 27.4403 11.4974C27.4139 11.4318 27.3871 11.3656 27.3593 11.301C27.3432 11.2619 27.3266 11.2228 27.31 11.1842C27.2592 11.0665 27.2065 10.9492 27.1524 10.8329C27.1275 10.7808 27.1026 10.7282 27.0772 10.6766C27.0167 10.5521 26.9543 10.4296 26.8899 10.3075C26.8757 10.2809 26.8616 10.2539 26.8469 10.2274C26.8313 10.1989 26.8162 10.1704 26.8006 10.142C26.7737 10.0937 26.7464 10.0445 26.7191 9.99673C26.6918 9.94848 26.664 9.90023 26.6361 9.85246C26.5586 9.7188 26.4776 9.58659 26.3941 9.45583C26.3658 9.41095 26.337 9.36608 26.3078 9.3212C26.2746 9.27102 26.2419 9.22132 26.2082 9.1721C26.0287 8.90672 25.8394 8.6476 25.6398 8.39669C25.5666 8.30453 25.4919 8.21333 25.4158 8.1231C25.3953 8.09801 25.3739 8.07389 25.3534 8.04879C25.3216 8.01164 25.2899 7.97497 25.2582 7.93878C24.964 7.60343 24.6522 7.28352 24.3243 6.98049L25.6554 5.5918C26.7947 6.64514 27.7628 7.87895 28.5118 9.24641C29.6204 11.2706 30.2498 13.5891 30.2498 16.0529L30.2474 16.0548Z" fill="#2F58F2"/>
<path d="M22.0067 3.10152L21.217 4.95787C21.1789 4.93882 21.1398 4.92028 21.1016 4.90226C21.063 4.88372 21.0239 4.8657 20.9852 4.84767C20.9533 4.83274 20.9213 4.81832 20.8894 4.80339C20.8756 4.79721 20.8622 4.79103 20.8484 4.78537C20.8159 4.77043 20.7835 4.75653 20.7511 4.74263C20.7129 4.72563 20.6743 4.70967 20.6362 4.69319C20.5913 4.67465 20.547 4.65612 20.5022 4.63758C20.4578 4.61904 20.413 4.60153 20.3682 4.58351C20.3 4.55622 20.2318 4.52996 20.1631 4.50524C20.1412 4.497 20.1192 4.48825 20.0973 4.48052C20.0753 4.47228 20.0534 4.46404 20.0315 4.45684C19.9881 4.44087 19.9442 4.42594 19.9003 4.41101C19.8498 4.39298 19.7992 4.37599 19.7482 4.36003C19.7148 4.3487 19.6814 4.3384 19.6476 4.32759C19.6414 4.32501 19.6361 4.32347 19.6299 4.32141C19.6018 4.31214 19.5737 4.30338 19.5446 4.29463C19.5374 4.29257 19.5307 4.29051 19.5241 4.28794C19.4654 4.26991 19.4068 4.2524 19.3476 4.23593C19.2937 4.21996 19.2398 4.20503 19.1855 4.1901C19.0024 4.13963 18.8168 4.0938 18.6304 4.05312C18.5775 4.0418 18.525 4.03047 18.4716 4.01914C18.4644 4.01759 18.4568 4.01605 18.4501 4.01502C18.4163 4.00781 18.3819 4.00163 18.3485 3.99494C18.3366 3.99236 18.3242 3.98979 18.3123 3.98773C18.2584 3.97743 18.205 3.96764 18.1511 3.95837C18.1244 3.95322 18.0972 3.94859 18.07 3.94447C18.0433 3.94035 18.0166 3.93572 17.9895 3.9316C17.9356 3.92284 17.8817 3.91461 17.8273 3.90637C17.7811 3.89967 17.7343 3.89298 17.6871 3.8868C17.6404 3.8801 17.5927 3.87444 17.5459 3.86878C17.5188 3.86569 17.4911 3.86208 17.4639 3.85951C17.4558 3.85796 17.4472 3.85745 17.4386 3.85693C17.4091 3.85333 17.3786 3.84972 17.3485 3.84715C17.3328 3.84509 17.3175 3.84354 17.3013 3.842C17.2722 3.83891 17.2426 3.83582 17.2136 3.83324C17.2083 3.83273 17.2031 3.83222 17.1978 3.83222C17.1339 3.82604 17.07 3.8214 17.0047 3.81625C16.9699 3.81368 16.9351 3.8111 16.9002 3.80904C16.8144 3.80338 16.729 3.79874 16.6423 3.79565C16.595 3.7936 16.5473 3.79205 16.5001 3.79102C16.4377 3.78896 16.3747 3.78793 16.3118 3.78742C16.2646 3.7869 16.2164 3.78638 16.1687 3.78638H16.1382V1.74414H16.1687C18.2503 1.74414 20.227 2.22921 22.0058 3.101L22.0067 3.10152Z" fill="#2F58F2"/>
<path d="M16.1382 30.154V32.0008C13.6116 31.9966 11.219 31.4432 9.08197 30.4578L9.90069 28.7871C11.7897 29.6594 13.9047 30.1493 16.1382 30.154Z" fill="#2F58F2"/>
<path d="M16.1388 26.5592V28.5097C15.9754 28.5092 15.812 28.5059 15.6499 28.4987C15.6261 28.4982 15.6032 28.4968 15.5794 28.4958C15.5613 28.4953 15.5437 28.4944 15.5256 28.4934C15.4927 28.492 15.4603 28.4901 15.4274 28.4877C15.426 28.4877 15.4241 28.4877 15.4222 28.4872C15.3712 28.4848 15.3216 28.4809 15.2706 28.4771C15.2659 28.4771 15.2616 28.4766 15.2568 28.4761C15.2039 28.4723 15.1506 28.468 15.0977 28.4637C15.0448 28.4589 14.9919 28.4541 14.939 28.4483C14.919 28.4469 14.898 28.445 14.8775 28.4421C14.8432 28.4387 14.8094 28.4349 14.7756 28.431C14.7498 28.4286 14.7246 28.4253 14.6989 28.4219C14.6564 28.4167 14.6145 28.4119 14.5721 28.4061C14.544 28.4027 14.5154 28.3984 14.4868 28.3946C14.4582 28.3912 14.4296 28.3869 14.401 28.3826C14.3448 28.3744 14.2876 28.3658 14.2314 28.3567C14.1923 28.3505 14.1537 28.3447 14.1151 28.3375C14.0413 28.3255 13.9679 28.3121 13.894 28.2982C13.8664 28.2929 13.8383 28.2876 13.8102 28.2819C13.7825 28.2766 13.7549 28.2713 13.7268 28.2651C13.7025 28.2603 13.6782 28.2555 13.6534 28.2497C13.6286 28.2444 13.6048 28.2396 13.58 28.2339C13.5209 28.2214 13.4619 28.208 13.4028 28.1945C13.0697 28.1168 12.7414 28.0257 12.4193 27.9216C12.3959 27.9139 12.3726 27.9062 12.3492 27.8986C12.1544 27.8343 11.9614 27.7652 11.7708 27.6913C11.7246 27.6736 11.6783 27.6554 11.6316 27.6366C11.5859 27.6184 11.5406 27.5997 11.4949 27.5805C11.3291 27.5119 11.1656 27.4395 11.0041 27.3637C10.9622 27.3445 10.9202 27.3244 10.8783 27.3037C10.8759 27.3028 10.873 27.3018 10.8707 27.3004C10.8635 27.297 10.8568 27.2937 10.8502 27.2903C10.8125 27.2721 10.7749 27.2538 10.7372 27.2346C10.6629 27.1977 10.5886 27.1603 10.5152 27.121C10.4861 27.1056 10.4566 27.0903 10.4275 27.0749C10.3985 27.0591 10.3689 27.0437 10.3398 27.0274C10.3108 27.0116 10.2822 26.9962 10.2531 26.9799C10.2241 26.9636 10.1955 26.9473 10.1664 26.9315C10.1092 26.8989 10.0516 26.8662 9.99486 26.8322C9.93816 26.7986 9.88098 26.765 9.82476 26.7305C9.76233 26.6926 9.69991 26.6532 9.63797 26.6139C9.58841 26.5822 9.53933 26.5506 9.49073 26.5184C9.46309 26.5007 9.43546 26.4825 9.4083 26.4638C9.36732 26.4369 9.32681 26.4095 9.28631 26.3817C9.25725 26.3621 9.22866 26.3424 9.19959 26.3218C9.16147 26.2949 9.12335 26.2685 9.08571 26.2412C9.06712 26.2282 9.04854 26.2148 9.02996 26.2014C8.99803 26.1783 8.96658 26.1553 8.93513 26.1318C8.90321 26.1088 8.87224 26.0857 8.84031 26.0618C8.78885 26.0229 8.73786 25.9831 8.68688 25.9437C8.63065 25.9001 8.57442 25.856 8.51915 25.8109C8.49628 25.7931 8.47388 25.7749 8.45149 25.7567C8.40098 25.7154 8.3519 25.6746 8.30234 25.6324C8.27709 25.6118 8.25231 25.5902 8.22801 25.5691C8.09126 25.4516 7.95688 25.3316 7.82537 25.2083C7.78058 25.1661 7.73627 25.1244 7.69243 25.0812C7.52422 24.9196 7.36078 24.7521 7.20211 24.5809C7.15589 24.5305 7.10967 24.4801 7.0644 24.4288C7.0563 24.4197 7.0482 24.4111 7.04058 24.4024C6.99722 24.3545 6.95433 24.3051 6.91288 24.2561C6.90954 24.2528 6.90668 24.2494 6.90382 24.246C6.87333 24.2105 6.84236 24.1746 6.81234 24.1381C6.67749 23.9774 6.54645 23.8134 6.42018 23.6459C6.39063 23.6071 6.36109 23.5677 6.3325 23.5289C6.25912 23.4301 6.18765 23.3303 6.1176 23.2291C6.11665 23.2276 6.1157 23.2267 6.11522 23.2252C6.09521 23.1964 6.07472 23.1677 6.05518 23.1379C6.03088 23.1019 6.00705 23.0664 5.98275 23.03C5.88316 22.8803 5.78691 22.7292 5.69447 22.5752C5.67636 22.545 5.65778 22.5143 5.63967 22.4836C5.62109 22.4515 5.60203 22.4193 5.58345 22.3867C5.56058 22.3483 5.53866 22.3095 5.51721 22.2706C5.51007 22.2586 5.50292 22.2461 5.49672 22.2341C5.47576 22.1962 5.45432 22.1583 5.43383 22.12C5.42811 22.1109 5.42334 22.1013 5.4181 22.0917C5.3919 22.0442 5.36616 21.9957 5.34091 21.9478C5.32423 21.9161 5.30803 21.8849 5.29231 21.8537C5.15936 21.5966 5.03547 21.3347 4.92159 21.068C4.9092 21.0392 4.89681 21.0104 4.8849 20.9816C4.83058 20.8526 4.77817 20.7221 4.72909 20.5907C4.71146 20.5446 4.6943 20.4985 4.67715 20.4525C4.66571 20.4218 4.65428 20.3906 4.64332 20.3599C4.61139 20.2712 4.5809 20.1824 4.55135 20.0927C4.53849 20.0524 4.52467 20.0121 4.51228 19.9718C4.49322 19.9128 4.47511 19.8543 4.45701 19.7948C4.45558 19.7905 4.45415 19.7857 4.45319 19.7809C4.43652 19.7262 4.42032 19.671 4.40459 19.6159C4.40364 19.6125 4.40269 19.6087 4.40173 19.6053L6.14857 19.0781C6.47879 20.1877 6.98626 21.221 7.63811 22.1435C8.66972 23.6032 10.0635 24.7862 11.6879 25.5585C13.0373 26.2009 14.5464 26.5602 16.1384 26.5602L16.1388 26.5592Z" fill="#2F58F2"/>
<path d="M26.1287 19.0258C25.5643 20.9083 24.4735 22.5659 23.0256 23.8319C22.0177 24.7124 20.8369 25.4031 19.54 25.8467C18.4745 26.2118 17.3299 26.4102 16.1382 26.4102V24.54C17.1137 24.54 18.0515 24.3799 18.9265 24.0846C19.992 23.7252 20.9646 23.1649 21.7976 22.4497C23.0013 21.4166 23.9143 20.0599 24.3997 18.5156L26.1282 19.0263L26.1287 19.0258Z" fill="#2F58F2"/>
<path d="M3.6035 9.08322C2.48616 11.1357 1.85011 13.4988 1.85011 16.0132C1.85011 17.3961 2.04263 18.7328 2.4017 19.9977C2.8325 21.5159 3.50299 22.9297 4.36978 24.1941L2.86175 25.288C1.87937 23.8579 1.11828 22.2582 0.628972 20.5401C0.219409 19.1037 0 17.5844 0 16.0132C0 13.1703 0.718152 10.4989 1.97987 8.17765C3.10381 6.10882 4.65949 4.31793 6.52234 2.93164L7.61514 4.45569C5.97028 5.67868 4.59673 7.2586 3.6035 9.0837V9.08322Z" fill="#2F58F2"/>
<path d="M16.1379 3.83883V5.52307C15.1935 5.52307 14.2776 5.64428 13.4061 5.87067C12.1218 6.20459 10.9338 6.7682 9.89119 7.51481C8.64271 8.4081 7.60304 9.56173 6.85579 10.8941L5.30908 10.0702C5.33228 10.031 5.35452 9.99093 5.3782 9.95178C5.4014 9.91264 5.4246 9.87302 5.44828 9.83434C5.46568 9.8051 5.48309 9.77586 5.50097 9.74756C5.63872 9.52259 5.78373 9.30233 5.93598 9.08679C5.9558 9.05849 5.97561 9.03067 5.99688 9.00237C6.05392 8.92172 6.11288 8.84201 6.17282 8.76324C6.19215 8.7373 6.21197 8.71136 6.23227 8.68542C6.34634 8.53733 6.46379 8.39206 6.58463 8.24916C6.61605 8.2119 6.64795 8.17464 6.68033 8.13738C6.71272 8.10012 6.74462 8.06333 6.77748 8.02701C6.8031 7.99824 6.8292 7.969 6.8553 7.94023C6.8756 7.91712 6.89687 7.89495 6.91765 7.87184C6.94811 7.83788 6.97952 7.8044 7.01094 7.77138C7.12211 7.653 7.2357 7.53651 7.35218 7.42284C7.37587 7.39973 7.39858 7.37709 7.42227 7.35445C7.50685 7.27191 7.59385 7.19032 7.68182 7.11014C7.71759 7.07713 7.75336 7.04553 7.78961 7.01298C7.80411 7.00025 7.81861 6.98704 7.83359 6.97431C7.87178 6.94035 7.90996 6.90686 7.94911 6.87385C8.03322 6.80122 8.11877 6.72953 8.2048 6.65925C8.24782 6.62388 8.29132 6.58898 8.33482 6.55408C8.36914 6.52672 8.40442 6.49936 8.43971 6.47248C8.46001 6.45597 8.48128 6.43994 8.50206 6.42437C8.56296 6.37815 8.62338 6.3324 8.68477 6.28665C8.74663 6.24138 8.8085 6.19657 8.87037 6.15224C8.94625 6.09847 9.02311 6.04517 9.09996 5.99282C9.10044 5.99235 9.10093 5.99188 9.10189 5.99141C9.15313 5.95698 9.20388 5.92302 9.2556 5.88906C9.26816 5.88057 9.28121 5.87208 9.29426 5.86359C9.34646 5.82963 9.39915 5.79615 9.45183 5.76313C9.49098 5.73814 9.5311 5.71361 9.57074 5.68956C9.61037 5.66503 9.65097 5.6405 9.69109 5.61645C9.73072 5.5924 9.77181 5.56882 9.81192 5.54523C9.83996 5.5292 9.86751 5.51269 9.89554 5.49713C9.95016 5.46505 10.0053 5.4344 10.0608 5.40374C10.1 5.38205 10.1401 5.36035 10.1798 5.33913C10.2213 5.31649 10.2624 5.29479 10.3045 5.2731C10.3465 5.2514 10.3881 5.22971 10.4301 5.20848C10.4722 5.18726 10.5137 5.16603 10.5563 5.14528C10.5983 5.12453 10.6404 5.10378 10.6834 5.0835C10.7259 5.06322 10.768 5.04246 10.811 5.02265C10.854 5.00285 10.8966 4.98304 10.9396 4.96323C10.9826 4.94389 11.0261 4.92455 11.0691 4.90522C11.1155 4.88446 11.1619 4.86418 11.2088 4.84437C11.245 4.82881 11.2818 4.81325 11.319 4.79862C11.4983 4.72411 11.6791 4.65383 11.8623 4.5878C11.8879 4.57884 11.913 4.56988 11.9382 4.56092C12.0024 4.53781 12.0667 4.51564 12.131 4.49394C12.1673 4.48215 12.2035 4.46942 12.2403 4.4581C12.2596 4.4515 12.2789 4.44537 12.2983 4.43923C12.3335 4.42791 12.3698 4.4166 12.4056 4.40575C12.4515 4.39113 12.4974 4.37745 12.5433 4.36377C12.5892 4.34962 12.6356 4.33642 12.6815 4.32321C12.7739 4.2968 12.8667 4.2718 12.9604 4.24728C13.0126 4.2336 13.0644 4.22039 13.117 4.20766C13.1958 4.18832 13.2741 4.16945 13.3529 4.152C13.4138 4.13833 13.4742 4.12512 13.5356 4.11191C13.5999 4.09777 13.6647 4.08503 13.7294 4.07277C13.7942 4.06051 13.8585 4.04777 13.9237 4.03645H13.9242C13.989 4.02513 14.0542 4.01334 14.12 4.00297C14.1209 4.00297 14.1214 4.00296 14.1219 4.00249C14.1862 3.99259 14.251 3.98268 14.3157 3.97325C14.3902 3.9624 14.4646 3.95203 14.5395 3.94212C14.5777 3.93693 14.6169 3.93269 14.655 3.92797C14.7222 3.91996 14.7904 3.91241 14.8576 3.90534C14.8909 3.90203 14.9238 3.89873 14.9576 3.8959C14.9832 3.89307 15.0089 3.89024 15.035 3.88836C15.0606 3.886 15.0862 3.88411 15.1123 3.88175C15.1819 3.87562 15.2515 3.87091 15.3216 3.86619C15.3457 3.86477 15.3689 3.86289 15.3926 3.86147C15.6391 3.84638 15.8866 3.83836 16.137 3.83789L16.1379 3.83883Z" fill="#2F58F2"/>
<path d="M25.2903 10.9621L23.7848 11.7398C23.3513 10.9201 22.7839 10.1794 22.1099 9.54478C21.4294 8.90371 20.6399 8.37065 19.7724 7.97512C18.6688 7.47252 17.4368 7.19191 16.1382 7.19191V5.5918C17.682 5.5918 19.1463 5.92087 20.462 6.51162C21.4989 6.97684 22.4431 7.60405 23.2609 8.36096C24.074 9.11186 24.7612 9.99015 25.2903 10.9626V10.9621Z" fill="#2F58F2"/>
<path d="M16.1068 15.8575L16.1376 24.6603C16.1275 24.6603 16.1169 24.6603 16.1068 24.6603C11.2947 24.6603 7.33478 20.6865 7.33478 15.8575C7.33478 11.0285 11.2754 7.07162 16.0759 7.05469L16.1068 15.8575Z" fill="#2F58F2"/>
<path d="M15.999 15.8585V10.5488C16.005 10.5488 15.9972 10.5488 16.0038 10.5488C18.8755 10.5488 21.2387 12.9457 21.2387 15.8585C21.2387 18.7712 18.8642 21.1577 15.999 21.1681V15.8585Z" fill="#2F58F2"/>
</svg>
